<svg width="223" height="40" viewBox="0 0 223 40" fill="none" xmlns="http://www.w3.org/2000/svg">
<path fill-rule="evenodd" clip-rule="evenodd" d="M21.3207 4.74876C32.5039 10.7215 33.8448 22.8413 27.0556 30.8361C22.6122 28.9759 19.3842 23.8962 19.3032 16.7059C16.9053 25.172 19.7896 33.0721 27.5366 35.7916C36.8872 28.4642 41.9222 19.1403 42.6414 7.82017C30.1456 -2.60673 12.4958 -2.60673 0 7.82017C0.865108 21.4342 7.97189 32.1607 21.3208 40C22.6651 39.2105 23.9464 38.3916 25.1642 37.5436C11.2436 32.4137 6.89264 15.3363 21.3207 4.74876Z" fill="url(#paint0_linear_242_98)"/>
<path fill-rule="evenodd" clip-rule="evenodd" d="M27.1671 30.7767C33.9563 22.7818 32.6155 10.6619 21.4322 4.6893C7.00419 15.2767 11.3551 32.3543 25.2756 37.4841C26.0951 36.9133 26.8859 36.3294 27.6481 35.7321C19.901 33.0126 17.0169 25.1125 19.4146 16.6464C19.4957 23.8368 22.7238 28.9165 27.1671 30.7767Z" fill="white"/>
<path fill-rule="evenodd" clip-rule="evenodd" d="M21.4322 4.6893C36.0678 17.7003 24.3248 34.5331 19.4146 16.6464C19.4401 18.9035 19.7758 20.9525 20.3619 22.7592C21.6424 26.7082 24.1184 29.5005 27.1671 30.7767C28.7577 28.9037 29.9023 26.8044 30.5784 24.6107C31.3633 22.0638 31.5173 19.3899 31.004 16.7957C30.0751 12.0858 26.954 7.63843 21.4322 4.6893Z" fill="#163020"/>
<path d="M52.993 32V7.7487H69.8387V11.4759H57.2898V17.8561H68.8946V21.5182H57.2898V28.2728H69.8387V32H52.993Z" fill="white"/>
<path d="M80.353 32.3906C78.682 32.3906 77.2117 32.0109 75.9422 31.2513C74.6835 30.4918 73.7015 29.4392 72.9962 28.0938C72.3018 26.7483 71.9545 25.1912 71.9545 23.4225C71.9545 21.6539 72.3018 20.0968 72.9962 18.7513C73.7015 17.395 74.6835 16.337 75.9422 15.5775C77.2117 14.8071 78.682 14.4219 80.353 14.4219C81.7961 14.4219 83.0819 14.704 84.2104 15.2682C85.3389 15.8216 86.2449 16.592 86.9285 17.5794C87.6229 18.556 88.0298 19.6845 88.1492 20.9648H84.129C83.9771 20.0425 83.5811 19.2938 82.9409 18.7188C82.3115 18.1328 81.4652 17.8398 80.4018 17.8398C79.0563 17.8398 78.0038 18.3444 77.2443 19.3535C76.4847 20.3626 76.1049 21.719 76.1049 23.4225C76.1049 25.1152 76.4847 26.4661 77.2443 27.4753C78.0038 28.4735 79.0563 28.9727 80.4018 28.9727C81.476 28.9727 82.3115 28.6905 82.9083 28.1263C83.5051 27.5512 83.9012 26.7862 84.0965 25.8314H88.1492C88.0515 27.0901 87.6555 28.2131 86.9611 29.2005C86.2775 30.1879 85.366 30.9692 84.2267 31.5443C83.0982 32.1085 81.807 32.3906 80.353 32.3906Z" fill="white"/>
<path d="M98.5984 32.3906C96.9057 32.3906 95.4246 32.0163 94.1551 31.2676C92.8855 30.508 91.8927 29.4555 91.1765 28.11C90.4712 26.7645 90.1186 25.202 90.1186 23.4225C90.1186 21.643 90.4712 20.0805 91.1765 18.735C91.8927 17.3787 92.8855 16.3207 94.1551 15.5612C95.4246 14.8016 96.9057 14.4219 98.5984 14.4219C100.28 14.4219 101.756 14.8016 103.026 15.5612C104.306 16.3207 105.299 17.3787 106.004 18.735C106.72 20.0805 107.078 21.643 107.078 23.4225C107.078 25.202 106.72 26.7645 106.004 28.11C105.299 29.4555 104.306 30.508 103.026 31.2676C101.756 32.0163 100.28 32.3906 98.5984 32.3906ZM98.5984 28.9564C99.9114 28.9564 100.958 28.4627 101.74 27.4753C102.521 26.4878 102.912 25.1369 102.912 23.4225C102.912 21.7081 102.521 20.3518 101.74 19.3535C100.958 18.3553 99.9114 17.8561 98.5984 17.8561C97.2746 17.8561 96.2221 18.3553 95.4409 19.3535C94.6596 20.3409 94.269 21.6973 94.269 23.4225C94.269 25.1369 94.6596 26.4878 95.4409 27.4753C96.2221 28.4627 97.2746 28.9564 98.5984 28.9564Z" fill="white"/>
<path d="M110.122 32V7.7487H116.307L121.027 20.4928C121.255 21.1656 121.542 22.0445 121.889 23.1296C122.237 24.2038 122.551 25.2129 122.833 26.1569C123.116 25.2129 123.425 24.2038 123.761 23.1296C124.108 22.0445 124.396 21.1656 124.624 20.4928L129.262 7.7487H135.48V32H131.248V19.6302C131.248 18.773 131.264 17.7205 131.297 16.4727C131.33 15.2248 131.362 13.9824 131.395 12.7454C130.961 14.1126 130.548 15.4201 130.158 16.668C129.767 17.9049 129.442 18.8924 129.181 19.6302L124.559 32H121.043L116.388 19.6302C116.139 18.9249 115.818 17.9863 115.428 16.8145C115.048 15.6317 114.647 14.3893 114.223 13.0872C114.256 14.2808 114.283 15.469 114.305 16.6517C114.337 17.8236 114.354 18.8164 114.354 19.6302V32H110.122Z" fill="white"/>
<path d="M139.321 32V14.8125H143.423V32H139.321ZM141.372 12.2572C140.667 12.2572 140.081 12.0347 139.614 11.5898C139.147 11.1341 138.914 10.5753 138.914 9.91341C138.914 9.25152 139.147 8.69813 139.614 8.25326C140.081 7.80838 140.667 7.58594 141.372 7.58594C142.066 7.58594 142.647 7.80838 143.113 8.25326C143.58 8.69813 143.813 9.25152 143.813 9.91341C143.813 10.5753 143.58 11.1341 143.113 11.5898C142.647 12.0347 142.066 12.2572 141.372 12.2572Z" fill="white"/>
<path d="M153.807 32.4069C151.713 32.4069 149.96 31.9186 148.55 30.9421C147.15 29.9546 146.385 28.5386 146.255 26.694H150.307C150.394 27.5295 150.731 28.1806 151.317 28.6471C151.902 29.1029 152.711 29.3307 153.742 29.3307C154.729 29.3307 155.505 29.1354 156.069 28.7448C156.644 28.3542 156.932 27.855 156.932 27.2474C156.932 26.7266 156.72 26.3088 156.297 25.9941C155.874 25.6795 155.304 25.4462 154.588 25.2943L151.658 24.6921C148.316 23.9976 146.645 22.3429 146.645 19.7279C146.645 18.1437 147.275 16.8687 148.533 15.903C149.792 14.9264 151.468 14.4382 153.563 14.4382C155.646 14.4382 157.339 14.9536 158.641 15.9844C159.954 17.0043 160.632 18.3987 160.675 20.1673H156.818C156.796 19.3969 156.498 18.7622 155.923 18.263C155.348 17.7639 154.593 17.5143 153.66 17.5143C152.76 17.5143 152.049 17.7151 151.528 18.1165C151.007 18.518 150.747 19.0117 150.747 19.5977C150.747 20.1076 150.948 20.5254 151.349 20.8509C151.751 21.1656 152.309 21.4043 153.025 21.5671L156.118 22.2018C157.822 22.5599 159.075 23.1241 159.878 23.8945C160.692 24.6649 161.098 25.6795 161.098 26.9382C161.098 28.0558 160.784 29.0269 160.154 29.8516C159.536 30.6654 158.679 31.2947 157.583 31.7396C156.487 32.1845 155.228 32.4069 153.807 32.4069Z" fill="white"/>
<path d="M170.636 32.4069C168.542 32.4069 166.79 31.9186 165.379 30.9421C163.979 29.9546 163.214 28.5386 163.084 26.694H167.137C167.224 27.5295 167.56 28.1806 168.146 28.6471C168.732 29.1029 169.54 29.3307 170.571 29.3307C171.558 29.3307 172.334 29.1354 172.899 28.7448C173.474 28.3542 173.761 27.855 173.761 27.2474C173.761 26.7266 173.55 26.3088 173.126 25.9941C172.703 25.6795 172.134 25.4462 171.417 25.2943L168.488 24.6921C165.146 23.9976 163.475 22.3429 163.475 19.7279C163.475 18.1437 164.104 16.8687 165.363 15.903C166.621 14.9264 168.298 14.4382 170.392 14.4382C172.475 14.4382 174.168 14.9536 175.47 15.9844C176.783 17.0043 177.461 18.3987 177.505 20.1673H173.647C173.626 19.3969 173.327 18.7622 172.752 18.263C172.177 17.7639 171.423 17.5143 170.49 17.5143C169.589 17.5143 168.878 17.7151 168.358 18.1165C167.837 18.518 167.576 19.0117 167.576 19.5977C167.576 20.1076 167.777 20.5254 168.178 20.8509C168.58 21.1656 169.139 21.4043 169.855 21.5671L172.947 22.2018C174.651 22.5599 175.904 23.1241 176.707 23.8945C177.521 24.6649 177.928 25.6795 177.928 26.9382C177.928 28.0558 177.613 29.0269 176.984 29.8516C176.365 30.6654 175.508 31.2947 174.412 31.7396C173.316 32.1845 172.058 32.4069 170.636 32.4069Z" fill="white"/>
<path d="M180.727 32V14.8125H184.829V32H180.727ZM182.778 12.2572C182.073 12.2572 181.487 12.0347 181.02 11.5898C180.554 11.1341 180.32 10.5753 180.32 9.91341C180.32 9.25152 180.554 8.69813 181.02 8.25326C181.487 7.80838 182.073 7.58594 182.778 7.58594C183.473 7.58594 184.053 7.80838 184.52 8.25326C184.986 8.69813 185.22 9.25152 185.22 9.91341C185.22 10.5753 184.986 11.1341 184.52 11.5898C184.053 12.0347 183.473 12.2572 182.778 12.2572Z" fill="white"/>
<path d="M196.157 32.3906C194.464 32.3906 192.983 32.0163 191.714 31.2676C190.444 30.508 189.451 29.4555 188.735 28.11C188.03 26.7645 187.677 25.202 187.677 23.4225C187.677 21.643 188.03 20.0805 188.735 18.735C189.451 17.3787 190.444 16.3207 191.714 15.5612C192.983 14.8016 194.464 14.4219 196.157 14.4219C197.839 14.4219 199.315 14.8016 200.584 15.5612C201.864 16.3207 202.857 17.3787 203.563 18.735C204.279 20.0805 204.637 21.643 204.637 23.4225C204.637 25.202 204.279 26.7645 203.563 28.11C202.857 29.4555 201.864 30.508 200.584 31.2676C199.315 32.0163 197.839 32.3906 196.157 32.3906ZM196.157 28.9564C197.47 28.9564 198.517 28.4627 199.298 27.4753C200.08 26.4878 200.47 25.1369 200.47 23.4225C200.47 21.7081 200.08 20.3518 199.298 19.3535C198.517 18.3553 197.47 17.8561 196.157 17.8561C194.833 17.8561 193.781 18.3553 192.999 19.3535C192.218 20.3409 191.828 21.6973 191.828 23.4225C191.828 25.1369 192.218 26.4878 192.999 27.4753C193.781 28.4627 194.833 28.9564 196.157 28.9564Z" fill="white"/>
<path d="M211.587 22.2832V32H207.485V14.8125H211.522V17.4492C212.715 15.4635 214.473 14.4707 216.795 14.4707C218.596 14.4707 220.067 15.0512 221.206 16.2122C222.356 17.3733 222.931 19.0551 222.931 21.2578V32H218.813V21.9089C218.813 20.6502 218.509 19.6953 217.902 19.0443C217.294 18.3932 216.442 18.0677 215.346 18.0677C214.272 18.0677 213.377 18.4041 212.661 19.0768C211.945 19.7496 211.587 20.8184 211.587 22.2832Z" fill="white"/>
<defs>
<linearGradient id="paint0_linear_242_98" x1="111.463" y1="40.5079" x2="111.463" y2="0.0447205" gradientUnits="userSpaceOnUse">
<stop stop-color="#007C21"/>
<stop offset="1" stop-color="#99CC33"/>
</linearGradient>
</defs>
</svg>
