<svg width="60" height="60" viewBox="0 0 60 60" fill="none" xmlns="http://www.w3.org/2000/svg">
<path d="M58.3455 42L55.9637 41.4273C55.7365 40.6545 55.4274 39.9091 55.0455 39.2091L56.3274 37.1182C56.491 36.8545 56.4546 36.5 56.2274 36.2818L53.5455 33.6C53.3183 33.3727 52.9728 33.3364 52.7092 33.5L50.6183 34.7818C49.9183 34.4 49.1728 34.0909 48.4001 33.8636L47.8274 31.4818C47.7546 31.1727 47.4819 30.9636 47.1637 30.9636H43.3728C43.0546 30.9636 42.7819 31.1818 42.7092 31.4818L42.1364 33.8636C41.6455 34.0091 41.1637 34.2 40.7001 34.4091L42.7001 12.8909H45.4546C46.4274 12.8909 47.2092 12.1 47.2092 11.1364V7.89091C47.2092 6.91818 46.4183 6.13636 45.4546 6.13636H43.7819C43.4455 3.70909 41.3637 1.82727 38.8455 1.82727H16.1183C13.6001 1.82727 11.5092 3.70909 11.1819 6.13636H9.50917C8.53645 6.13636 7.75463 6.92727 7.75463 7.89091V11.1273C7.75463 12.1 8.54554 12.8818 9.50917 12.8818H10.1092L13.0274 44.1818C12.991 44.1818 12.9637 44.1818 12.9274 44.1818C9.0819 44.1818 5.95463 47.3 5.92736 51.1364C3.19099 52.0455 1.25463 54.5727 1.14554 57.4727C1.13645 57.6545 1.20917 57.8364 1.33645 57.9727C1.46372 58.1091 1.63645 58.1727 1.81827 58.1727H14.9455H37.8455C38.2001 58.1727 38.491 57.9091 38.5274 57.5545L38.7637 55.0455L39.9001 54.3455C40.6092 54.7273 41.3455 55.0364 42.1183 55.2636L42.691 57.6455C42.7637 57.9545 43.0364 58.1636 43.3546 58.1636H47.1455C47.4637 58.1636 47.7364 57.9455 47.8092 57.6455L48.3819 55.2636C49.1546 55.0364 49.9001 54.7273 50.6001 54.3455L52.691 55.6273C52.9546 55.7909 53.3001 55.7545 53.5274 55.5273L56.2092 52.8455C56.4364 52.6182 56.4728 52.2727 56.3092 52.0091L55.0274 49.9182C55.4092 49.2182 55.7183 48.4727 55.9455 47.7L58.3274 47.1273C58.6365 47.0545 58.8455 46.7818 58.8455 46.4636V42.6727C58.8637 42.3545 58.6455 42.0818 58.3455 42ZM16.1183 3.19091H38.8364C40.6001 3.19091 42.0819 4.46363 42.4001 6.13636H12.5546C12.8728 4.45454 14.3455 3.19091 16.1183 3.19091ZM9.10918 11.1273V7.89091C9.10918 7.67273 9.29099 7.5 9.50008 7.5H11.8001H43.1364H45.4364C45.6546 7.5 45.8274 7.67273 45.8274 7.89091V11.1273C45.8274 11.3455 45.6455 11.5182 45.4364 11.5182H42.0637H10.7274H9.50917C9.29099 11.5182 9.10918 11.3455 9.10918 11.1273ZM6.80917 52.2909C7.14554 52.2091 7.36372 51.8909 7.32736 51.5545L7.30917 51.3909C7.30008 51.3182 7.29099 51.2545 7.29099 51.1727C7.29099 48.0636 9.81827 45.5364 12.9274 45.5364C13.0001 45.5364 13.0819 45.5364 13.1546 45.5455L14.2001 56.8091H2.57281C2.94554 54.6364 4.60917 52.8273 6.80917 52.2909ZM15.5637 56.8091L14.4546 44.8545L11.4819 12.8818H41.3183L39.3092 34.4182L37.8092 33.5C37.5455 33.3364 37.191 33.3727 36.9728 33.6L34.291 36.2818C34.0637 36.5091 34.0274 36.8545 34.191 37.1182L35.4728 39.2091C35.091 39.9091 34.7819 40.6545 34.5546 41.4273L32.1728 42C31.8637 42.0727 31.6546 42.3455 31.6546 42.6636V46.4545C31.6546 46.7727 31.8728 47.0455 32.1728 47.1182L34.5455 47.7C34.7728 48.4727 35.0819 49.2182 35.4637 49.9182L34.1819 52.0091C34.0183 52.2727 34.0546 52.6273 34.2819 52.8455L36.9637 55.5273C37.0637 55.6273 37.191 55.6818 37.3183 55.7091L37.2183 56.8091H15.5637ZM57.5001 45.9182L55.2455 46.4636C55.0001 46.5273 54.8092 46.7182 54.7455 46.9636C54.5092 47.8909 54.1455 48.7636 53.6637 49.5818C53.5364 49.8 53.5364 50.0727 53.6637 50.2909L54.8728 52.2727L52.9546 54.1909L50.9728 52.9818C50.7546 52.8545 50.4819 52.8455 50.2637 52.9818C49.4455 53.4727 48.5728 53.8364 47.6455 54.0636C47.4001 54.1273 47.2092 54.3182 47.1455 54.5636L46.6001 56.8182H43.8819L43.3364 54.5636C43.2728 54.3182 43.0819 54.1273 42.8364 54.0636C41.9183 53.8364 41.0364 53.4636 40.2183 52.9818C40.0001 52.8545 39.7274 52.8545 39.5092 52.9818L37.5274 54.1909L35.6092 52.2727L36.8183 50.2909C36.9546 50.0727 36.9546 49.8 36.8183 49.5818C36.3274 48.7636 35.9637 47.8818 35.7364 46.9636C35.6728 46.7182 35.4819 46.5273 35.2364 46.4636L32.9819 45.9182V43.2L35.2364 42.6545C35.4819 42.5909 35.6728 42.4 35.7364 42.1545C35.9637 41.2364 36.3364 40.3545 36.8183 39.5364C36.9455 39.3182 36.9455 39.0455 36.8183 38.8273L35.6092 36.8455L37.5274 34.9273L39.5092 36.1364H39.5274C39.6092 36.1818 39.7001 36.2182 39.8092 36.2273H39.8455C39.8819 36.2273 39.9092 36.2182 39.9364 36.2182C40.0183 36.2091 40.091 36.1909 40.1637 36.1545C40.1819 36.1455 40.2092 36.1455 40.2274 36.1364C41.0364 35.6455 41.9183 35.2818 42.8455 35.0545C43.091 34.9909 43.2819 34.8 43.3455 34.5545L43.891 32.3H46.6092L47.1546 34.5545C47.2183 34.8 47.4092 34.9909 47.6546 35.0545C48.5819 35.2909 49.4637 35.6545 50.2728 36.1364C50.491 36.2636 50.7637 36.2636 50.9819 36.1364L52.9637 34.9273L54.8819 36.8455L53.6728 38.8273C53.5364 39.0455 53.5364 39.3182 53.6728 39.5364C54.1546 40.3455 54.5274 41.2273 54.7546 42.1545C54.8183 42.4 55.0092 42.5909 55.2546 42.6545L57.5092 43.2V45.9182H57.5001Z" fill="#163020"/>
<path d="M45.2547 38.4728C41.9001 38.4728 39.1729 41.2 39.1729 44.5546C39.1729 47.9091 41.9001 50.6364 45.2547 50.6364C48.6092 50.6364 51.3365 47.9091 51.3365 44.5546C51.3365 41.2 48.6092 38.4728 45.2547 38.4728ZM45.2547 49.2819C42.6547 49.2819 40.5365 47.1637 40.5365 44.5637C40.5365 41.9637 42.6547 39.8455 45.2547 39.8455C47.8547 39.8455 49.9729 41.9637 49.9729 44.5637C49.9729 47.1637 47.8547 49.2819 45.2547 49.2819Z" fill="#163020"/>
<path d="M26.9365 31.4091H33.9274C34.6638 31.4091 35.3183 31.0273 35.6819 30.3818C36.0456 29.7364 36.0274 28.9818 35.6456 28.3545L34.491 26.4636C34.3001 26.1455 33.8819 26.0364 33.5547 26.2364C33.2365 26.4273 33.1274 26.8545 33.3274 27.1727L34.4819 29.0636C34.6638 29.3545 34.5456 29.6182 34.491 29.7182C34.4365 29.8182 34.2729 30.0455 33.9274 30.0455H27.0547L28.1547 28.9909C28.4274 28.7273 28.4365 28.3 28.1819 28.0273C27.9274 27.7545 27.491 27.7455 27.2183 28L24.8819 30.2273C24.8274 30.2727 24.791 30.3364 24.7547 30.4C24.7456 30.4182 24.7365 30.4273 24.7274 30.4455C24.7092 30.4818 24.7092 30.5364 24.7001 30.5727C24.691 30.6182 24.6729 30.6545 24.6729 30.7V30.7091V30.7182C24.6729 30.7545 24.691 30.7818 24.691 30.8091C24.7001 30.8636 24.7001 30.9273 24.7274 30.9727C24.7365 31.0091 24.7638 31.0273 24.7819 31.0636C24.8092 31.1091 24.8274 31.1545 24.8638 31.1909L27.091 33.5273C27.2274 33.6636 27.4001 33.7364 27.5819 33.7364C27.7547 33.7364 27.9183 33.6727 28.0547 33.5455C28.3274 33.2818 28.3365 32.8545 28.0819 32.5818L26.9365 31.4091Z" fill="#163020"/>
<path d="M22.5092 30.0455H18.8637C18.5182 30.0455 18.3546 29.8182 18.3001 29.7182C18.2455 29.6182 18.1364 29.3546 18.3091 29.0637L21.5092 23.8L21.8364 25.3455C21.9092 25.6637 22.191 25.8909 22.5001 25.8909C22.5455 25.8909 22.591 25.8909 22.6455 25.8728C23.0182 25.7909 23.2546 25.4364 23.1728 25.0637L22.5092 21.9091C22.4637 21.7091 22.3455 21.5637 22.1819 21.4637C22.1728 21.4546 22.1637 21.4455 22.1546 21.4364C21.9455 21.3091 21.7091 21.3182 21.5001 21.4182L18.5455 22.0364C18.1728 22.1182 17.9364 22.4728 18.0182 22.8455C18.1001 23.2182 18.4637 23.4455 18.8273 23.3728L20.3728 23.0455L17.1455 28.3455C16.7637 28.9728 16.7455 29.7364 17.1091 30.3728C17.4728 31.0182 18.1273 31.4 18.8637 31.4H22.5092C22.8819 31.4 23.191 31.0909 23.191 30.7182C23.191 30.3455 22.8819 30.0455 22.5092 30.0455Z" fill="#163020"/>
<path d="M26.4002 16.3818C26.5093 16.3818 26.782 16.4091 26.9547 16.6909L31.0547 23.4364L29.5911 22.9727C29.2275 22.8546 28.8456 23.0636 28.7365 23.4182C28.6275 23.7818 28.8275 24.1636 29.182 24.2727L32.2638 25.2455C32.3275 25.2636 32.4002 25.2727 32.4729 25.2727C32.582 25.2727 32.6911 25.2455 32.7911 25.2C32.8093 25.1909 32.8184 25.1727 32.8365 25.1636C32.8547 25.1546 32.8729 25.1455 32.9002 25.1364C33.1184 25 33.2275 24.7636 33.2184 24.5182L34.1002 21.7182C34.2093 21.3636 34.0093 20.9727 33.6547 20.8636C33.2911 20.7455 32.9093 20.9546 32.8002 21.3091L32.3184 22.8546L28.1365 15.9818C27.7729 15.3818 27.1275 15.0182 26.4184 15.0182C25.7093 15.0182 25.0729 15.3818 24.7002 15.9818L22.7275 19.2273C22.5275 19.5455 22.6365 19.9727 22.9547 20.1636C23.2729 20.3636 23.6911 20.2546 23.8911 19.9364L25.8638 16.6909C26.0184 16.4091 26.2911 16.3818 26.4002 16.3818Z" fill="#163020"/>
</svg>
