<svg width="13" height="13" viewBox="0 0 13 13" fill="none" xmlns="http://www.w3.org/2000/svg">
<g clip-path="url(#clip0_134_304)">
<path d="M6.75 0.5C5.12175 0.5 4.917 0.5075 4.27725 0.536C3.6375 0.566 3.20175 0.6665 2.82 0.815C2.41957 0.965614 2.05687 1.20187 1.75725 1.50725C1.45206 1.80702 1.21583 2.16968 1.065 2.57C0.9165 2.951 0.81525 3.3875 0.786 4.025C0.7575 4.66625 0.75 4.87025 0.75 6.50075C0.75 8.12975 0.7575 8.33375 0.786 8.9735C0.816 9.6125 0.9165 10.0483 1.065 10.43C1.21875 10.8245 1.4235 11.159 1.75725 11.4928C2.09025 11.8265 2.42475 12.032 2.81925 12.185C3.20175 12.3335 3.63675 12.4347 4.27575 12.464C4.91625 12.4925 5.12025 12.5 6.75 12.5C8.37975 12.5 8.583 12.4925 9.2235 12.464C9.86175 12.434 10.299 12.3335 10.6807 12.185C11.0809 12.0343 11.4434 11.7981 11.7428 11.4928C12.0765 11.159 12.2812 10.8245 12.435 10.43C12.5828 10.0483 12.684 9.6125 12.714 8.9735C12.7425 8.33375 12.75 8.12975 12.75 6.5C12.75 4.87025 12.7425 4.66625 12.714 4.02575C12.684 3.3875 12.5828 2.951 12.435 2.57C12.2842 2.16967 12.048 1.80701 11.7428 1.50725C11.4432 1.20176 11.0805 0.965484 10.68 0.815C10.2975 0.6665 9.861 0.56525 9.22275 0.536C8.58225 0.5075 8.379 0.5 6.7485 0.5H6.75075H6.75ZM6.21225 1.5815H6.75075C8.35275 1.5815 8.5425 1.58675 9.17475 1.616C9.75975 1.64225 10.0778 1.7405 10.2892 1.82225C10.569 1.931 10.7692 2.0615 10.9792 2.2715C11.1892 2.4815 11.319 2.681 11.4278 2.9615C11.5103 3.17225 11.6077 3.49025 11.634 4.07525C11.6632 4.7075 11.6693 4.89725 11.6693 6.4985C11.6693 8.09975 11.6632 8.29025 11.634 8.9225C11.6077 9.5075 11.5095 9.82475 11.4278 10.0363C11.3316 10.2968 11.178 10.5323 10.9785 10.7255C10.7685 10.9355 10.569 11.0653 10.2885 11.174C10.0785 11.2565 9.7605 11.354 9.17475 11.381C8.5425 11.4095 8.35275 11.4163 6.75075 11.4163C5.14875 11.4163 4.95825 11.4095 4.326 11.381C3.741 11.354 3.42375 11.2565 3.21225 11.174C2.95162 11.0779 2.71584 10.9247 2.52225 10.7255C2.32256 10.532 2.16879 10.2962 2.07225 10.0355C1.9905 9.82475 1.89225 9.50675 1.866 8.92175C1.8375 8.2895 1.8315 8.09975 1.8315 6.497C1.8315 4.895 1.8375 4.706 1.866 4.07375C1.893 3.48875 1.9905 3.17075 2.073 2.95925C2.18175 2.6795 2.31225 2.47925 2.52225 2.26925C2.73225 2.05925 2.93175 1.9295 3.21225 1.82075C3.42375 1.73825 3.741 1.64075 4.326 1.61375C4.8795 1.58825 5.094 1.58075 6.21225 1.58V1.5815ZM9.95325 2.5775C9.8587 2.5775 9.76507 2.59612 9.67772 2.63231C9.59036 2.66849 9.51099 2.72152 9.44413 2.78838C9.37727 2.85524 9.32424 2.93461 9.28806 3.02197C9.25187 3.10932 9.23325 3.20295 9.23325 3.2975C9.23325 3.39205 9.25187 3.48568 9.28806 3.57303C9.32424 3.66039 9.37727 3.73976 9.44413 3.80662C9.51099 3.87348 9.59036 3.92651 9.67772 3.96269C9.76507 3.99888 9.8587 4.0175 9.95325 4.0175C10.1442 4.0175 10.3273 3.94164 10.4624 3.80662C10.5974 3.67159 10.6733 3.48846 10.6733 3.2975C10.6733 3.10654 10.5974 2.92341 10.4624 2.78838C10.3273 2.65336 10.1442 2.5775 9.95325 2.5775ZM6.75075 3.419C6.34205 3.41262 5.93617 3.48761 5.55673 3.63961C5.1773 3.7916 4.83189 4.01755 4.54061 4.30432C4.24934 4.59108 4.01802 4.93293 3.86013 5.30995C3.70224 5.68696 3.62093 6.09163 3.62093 6.50037C3.62093 6.90912 3.70224 7.31379 3.86013 7.6908C4.01802 8.06782 4.24934 8.40967 4.54061 8.69643C4.83189 8.9832 5.1773 9.20915 5.55673 9.36114C5.93617 9.51314 6.34205 9.58813 6.75075 9.58175C7.55966 9.56913 8.33116 9.23893 8.89873 8.66244C9.46631 8.08594 9.78443 7.30938 9.78443 6.50037C9.78443 5.69137 9.46631 4.91481 8.89873 4.33831C8.33116 3.76182 7.55966 3.43162 6.75075 3.419ZM6.75075 4.49975C7.28125 4.49975 7.79002 4.71049 8.16514 5.08561C8.54026 5.46073 8.751 5.9695 8.751 6.5C8.751 7.0305 8.54026 7.53927 8.16514 7.91439C7.79002 8.28951 7.28125 8.50025 6.75075 8.50025C6.22025 8.50025 5.71148 8.28951 5.33636 7.91439C4.96124 7.53927 4.7505 7.0305 4.7505 6.5C4.7505 5.9695 4.96124 5.46073 5.33636 5.08561C5.71148 4.71049 6.22025 4.49975 6.75075 4.49975Z" fill="#090A13"/>
</g>
<defs>
<clipPath id="clip0_134_304">
<rect width="12" height="12" fill="white" transform="translate(0.75 0.5)"/>
</clipPath>
</defs>
</svg>
