<svg width="60" height="60" viewBox="0 0 60 60" fill="none" xmlns="http://www.w3.org/2000/svg">
<path fill-rule="evenodd" clip-rule="evenodd" d="M20.2811 54.6924C20.1054 54.6924 19.9296 54.6221 19.789 54.4816C19.5078 54.2004 19.5078 53.7434 19.789 53.4974L31.1423 42.109C31.4235 41.8278 31.8804 41.8278 32.1616 42.109C32.4076 42.3902 32.4076 42.8471 32.1616 43.1283L20.7732 54.4816C20.6326 54.6221 20.4569 54.6924 20.2811 54.6924Z" fill="#163020"/>
<path fill-rule="evenodd" clip-rule="evenodd" d="M27.557 53.6731C25.6941 53.6731 23.9015 53.0405 22.4955 51.8454C22.4604 51.8102 22.4604 51.8102 22.4252 51.7751C19.8945 48.7522 19.9999 44.2883 22.6713 41.406C26.0807 37.7505 30.5799 36.5554 34.5517 35.5009C36.2389 35.0791 37.8206 34.6573 39.2618 34.0949C39.543 33.9895 39.8242 34.0246 40.0351 34.2355C40.2108 34.4464 40.2811 34.7276 40.1756 35.0088C39.6133 36.4499 39.1915 38.0317 38.7697 39.7188C37.7152 43.6907 36.5201 48.1898 32.8646 51.5993C31.4235 52.935 29.5254 53.6731 27.557 53.6731ZM23.4445 50.826C24.6045 51.7751 26.0456 52.2672 27.557 52.2672C29.1739 52.2672 30.7205 51.6696 31.9155 50.58C35.2547 47.4517 36.3444 43.3392 37.3988 39.3673C37.7152 38.1723 37.9964 37.0123 38.383 35.8876C37.2582 36.239 36.0983 36.5554 34.9032 36.8717C30.9314 37.9262 26.8189 39.0158 23.6906 42.355C21.5113 44.71 21.4059 48.3304 23.4445 50.826Z" fill="#163020"/>
<path fill-rule="evenodd" clip-rule="evenodd" d="M32.5483 46.2215C32.5131 46.2215 32.478 46.2215 32.478 46.2215L29.1036 45.7997C28.7873 45.7294 28.5061 45.4833 28.4709 45.167L28.0491 41.7926C27.9788 41.406 28.26 41.0545 28.6467 41.0193C29.0333 40.9491 29.3848 41.2302 29.4551 41.6169L29.8066 44.464L32.6537 44.8155C33.0403 44.8858 33.2864 45.2373 33.2512 45.6239C33.2161 45.9754 32.8997 46.2215 32.5483 46.2215Z" fill="#163020"/>
<path fill-rule="evenodd" clip-rule="evenodd" d="M30.4042 48.4007C30.369 48.4007 30.3339 48.4007 30.2987 48.3656L26.9244 47.9438C26.608 47.9087 26.362 47.6626 26.3269 47.3463L25.8699 43.9719C25.8348 43.5853 26.116 43.2338 26.5026 43.1635C26.8892 43.1283 27.2407 43.4095 27.2759 43.7962L27.6274 46.6081L30.4745 46.9948C30.8611 47.0299 31.1423 47.3814 31.1072 47.7681C31.0369 48.1196 30.7557 48.4007 30.4042 48.4007Z" fill="#163020"/>
<path fill-rule="evenodd" clip-rule="evenodd" d="M21.4762 45.7293C21.4059 45.7293 21.3005 45.6941 21.195 45.659C17.6098 44.007 15.8172 39.9296 17.0123 36.1687C18.5237 31.4235 22.1089 28.4358 25.2724 25.7996C26.608 24.6748 27.8734 23.6203 28.9279 22.4956C29.1388 22.2847 29.42 22.2144 29.7012 22.3198C29.9472 22.4253 30.123 22.6362 30.1581 22.9173C30.2636 24.4991 30.5448 26.1159 30.8611 27.8031C31.4235 30.8963 32.0211 34.0597 31.5641 37.3989C31.529 37.6449 31.3181 37.891 31.072 37.9613C27.8031 39.0509 25.5184 40.4217 23.6906 42.355C22.9525 43.1634 22.4253 44.1476 22.1792 45.2021C22.1089 45.3778 21.9683 45.5536 21.7926 45.659C21.6871 45.6941 21.5817 45.7293 21.4762 45.7293ZM28.8928 24.5342C28.0492 25.3075 27.1353 26.0808 26.1863 26.8892C23.0228 29.5254 19.7539 32.2319 18.3479 36.5905C17.4692 39.4376 18.6291 42.4604 21.0544 44.007C21.4411 43.0579 21.9683 42.1441 22.6713 41.4059C24.5694 39.3673 26.9244 37.9261 30.1933 36.7662C30.5448 33.8137 29.9824 30.8963 29.4903 28.0492C29.2443 26.8541 29.0334 25.659 28.8928 24.5342Z" fill="#163020"/>
<path fill-rule="evenodd" clip-rule="evenodd" d="M21.4763 45.7294C21.16 45.7294 20.8788 45.5185 20.8085 45.2022C20.7733 45.0967 20.2812 43.0932 20.7382 40.1407C21.16 37.4342 22.4605 33.392 26.3621 29.3849C26.6081 29.1389 27.0651 29.1038 27.3463 29.3849C27.6275 29.6661 27.6275 30.0879 27.3463 30.3691C23.7259 34.095 22.5308 37.8208 22.1442 40.2813C21.7224 42.9878 22.1793 44.8155 22.1793 44.8507C22.2496 45.2373 22.0387 45.624 21.6521 45.6943C21.6169 45.7294 21.5466 45.7294 21.4763 45.7294Z" fill="#163020"/>
<path fill-rule="evenodd" clip-rule="evenodd" d="M48.1546 60H11.8101C9.94721 60 8.40063 58.4534 8.40063 56.5905V17.6802C8.40063 17.2935 8.71698 16.9772 9.10362 16.9772H50.8611C51.2477 16.9772 51.5641 17.2935 51.5641 17.6802V56.5905C51.5641 58.4534 50.0527 60 48.1546 60ZM9.80661 18.3831V56.5905C9.80661 57.6802 10.7205 58.594 11.8101 58.594H48.1546C49.2794 58.594 50.1581 57.6802 50.1581 56.5905V18.3831H9.80661Z" fill="#163020"/>
<path fill-rule="evenodd" clip-rule="evenodd" d="M23.4095 18.3831H16.9772C16.5905 18.3831 16.2742 18.0668 16.2742 17.6801V5.62389C16.2742 5.23724 16.5905 4.9209 16.9772 4.9209H23.4095C23.8313 4.9209 24.1125 5.23724 24.1125 5.62389V17.6801C24.1125 18.0668 23.8313 18.3831 23.4095 18.3831ZM17.6801 16.9771H22.7065V6.32687H17.6801V16.9771Z" fill="#163020"/>
<path fill-rule="evenodd" clip-rule="evenodd" d="M43.0228 18.3831H36.5553C36.1686 18.3831 35.8523 18.0668 35.8523 17.6801V5.62389C35.8523 5.23724 36.1686 4.9209 36.5553 4.9209H43.0228C43.4094 4.9209 43.7258 5.23724 43.7258 5.62389V17.6801C43.7258 18.0668 43.4094 18.3831 43.0228 18.3831ZM37.2583 16.9771H42.3198V6.32687H37.2583V16.9771Z" fill="#163020"/>
<path fill-rule="evenodd" clip-rule="evenodd" d="M43.0228 6.32689H16.9771C16.6959 6.32689 16.4498 6.18629 16.3444 5.9754C16.2038 5.72935 16.2389 5.44815 16.3795 5.23726L19.9648 0.281195C20.1054 0.105448 20.3163 0 20.5272 0H39.4375C39.6836 0 39.8945 0.105448 39.9999 0.281195L43.5852 5.23726C43.7609 5.44815 43.7609 5.72935 43.6555 5.9754C43.5149 6.18629 43.304 6.32689 43.0228 6.32689ZM18.3479 4.92091H41.6519L39.086 1.40598H20.9138L18.3479 4.92091Z" fill="#163020"/>
<path fill-rule="evenodd" clip-rule="evenodd" d="M47.7679 47.1705C47.3813 47.1705 47.0649 46.8541 47.0649 46.4675V32.478C47.0649 32.0914 47.3813 31.775 47.7679 31.775C48.1546 31.775 48.4709 32.0914 48.4709 32.478V46.4675C48.4709 46.8541 48.1546 47.1705 47.7679 47.1705Z" fill="#163020"/>
<path fill-rule="evenodd" clip-rule="evenodd" d="M47.7679 53.7082C47.3813 53.7082 47.0649 53.3919 47.0649 53.0052V49.1388C47.0649 48.717 47.3813 48.4358 47.7679 48.4358C48.1546 48.4358 48.4709 48.717 48.4709 49.1388V53.0052C48.4709 53.3919 48.1546 53.7082 47.7679 53.7082Z" fill="#163020"/>
</svg>
