<svg width="111" height="31" viewBox="0 0 111 31" fill="none" xmlns="http://www.w3.org/2000/svg">
<path opacity="0.5" fill-rule="evenodd" clip-rule="evenodd" d="M12.2403 0C9.42246 0 6.86083 1.02465 4.81152 2.56163L18.7724 19.3403L30.1717 10.7589C29.6594 4.73902 24.5361 0 18.2601 0" fill="#10100F"/>
<path fill-rule="evenodd" clip-rule="evenodd" d="M18.2604 30.2271C24.9206 30.2271 30.3 24.8477 30.3 18.1874V17.547L19.9254 25.2319C18.7727 26.1285 17.1076 25.8723 16.211 24.8477L1.35357 6.91626C0.585081 8.45324 0.0727539 10.2464 0.0727539 12.0395V18.0594C0.0727539 24.7196 5.45219 30.099 12.1124 30.099" fill="#10100F"/>
<g clip-path="url(#clip0_95_9741)">
<path d="M45.0743 9.28116L45.3367 9.50605C45.4491 10.7804 45.4866 12.111 45.4866 13.3854C45.4866 15.9717 45.1493 18.6141 44.9057 20.357L45.3742 20.3758C47.2108 18.5392 48.9162 15.5968 48.9162 13.4416C48.9162 11.7175 48.2041 10.5743 47.5106 9.84338L47.5481 9.59975C48.6913 9.37486 49.947 9.2999 50.8653 9.28116C51.2588 9.58101 51.5025 9.99331 51.5025 10.7617C51.5025 11.2864 51.3713 11.9236 51.1089 12.767C50.3405 15.2595 45.7677 21.2379 43.5563 22.6247C42.6005 22.5497 41.6822 22.2499 40.9888 21.8563C41.195 19.4762 41.3449 17.0024 41.3449 14.6973C41.3449 13.3667 41.2699 12.1485 41.1762 11.1365L39.4895 9.8059L39.527 9.56227C40.8389 9.43108 43.7625 9.28116 45.0743 9.28116ZM54.9075 10.8554C54.1766 10.8554 53.6331 10.3869 53.6331 9.73094C53.6331 8.73767 54.6076 8.13796 55.4135 8.13796C56.1444 8.13796 56.6691 8.60648 56.6691 9.24367C56.6691 10.2557 55.7133 10.8554 54.9075 10.8554ZM57.831 20.2071C56.9315 21.2191 55.0949 22.6247 53.5206 22.6247C52.19 22.6247 51.1593 21.9313 51.1593 20.5257C51.1593 19.851 51.4216 18.9515 51.759 17.8832C52.0963 16.8337 52.4524 15.6531 52.696 14.285L51.9839 13.2167L52.0401 12.9356C53.7268 12.7482 55.1511 12.6733 56.5379 12.6545L56.8003 12.8419C56.8003 13.5916 56.5754 15.1845 56.1256 16.7775C55.6383 18.5017 54.8325 20.3945 54.8325 21.3503C54.8325 21.519 54.8512 21.7251 54.9075 21.8001C55.7695 21.4253 57.0814 20.4882 57.7748 19.7198L57.831 19.7761V20.2071ZM65.6208 19.6449C65.6208 21.7813 63.4281 22.6247 61.6103 22.6247C59.6237 22.6247 57.5622 22.0062 56.8688 21.0504C57.2249 20.1884 57.8246 19.42 58.443 18.7828H58.6305C59.0615 19.8885 60.1297 22.1749 61.3479 22.1749C61.9101 22.1749 62.4161 21.8376 62.4161 21.1442C62.4161 20.1696 61.7227 19.851 60.8231 19.2888C59.3426 18.3705 58.3868 17.7146 58.3868 16.3652C58.3868 13.6478 61.6477 12.6545 63.8029 12.6545C65.8082 12.6545 67.1388 13.3854 67.1388 14.5661C67.1388 15.297 66.7078 15.7468 66.0893 16.0654C65.1523 16.1778 64.234 16.1966 63.2969 16.1966L63.2407 16.0091C63.6905 15.5031 64.1403 15.0159 64.1403 14.5286C64.1403 13.9851 63.5781 13.2542 62.8284 13.2542C62.2474 13.2542 61.6665 13.6478 61.6665 14.6223C61.6665 15.5968 62.2849 16.1591 63.1845 16.7213C64.665 17.6396 65.6208 18.2955 65.6208 19.6449ZM80.7939 20.2071C79.8944 21.2191 77.6829 22.6247 76.1087 22.6247C74.7781 22.6247 74.0472 21.9313 74.0472 20.7131C74.0472 19.7011 74.5907 18.0144 75.3778 16.4589L75.0779 16.3652C75.0217 16.4777 74.7219 17.1523 74.6469 17.3023C73.4475 19.9073 72.1918 22.6247 69.5869 22.6247C68.1063 22.6247 67.3379 21.7439 67.3379 20.5257C67.3379 19.8698 67.8065 18.6516 68.2563 17.396C68.7248 16.1403 69.1933 14.8659 69.1933 14.0788C69.1933 13.7977 69.0809 13.7228 68.9122 13.7228C68.6123 13.7228 68.1625 13.8914 67.7877 14.1163L67.7315 14.0788L67.8065 13.5916C68.6498 13.1418 69.8117 12.6545 70.8425 12.6545C72.2668 12.6545 72.904 13.3854 72.904 14.6036C72.904 15.2782 72.5104 16.5526 72.1169 17.752C71.7233 18.9702 71.3298 20.1134 71.3298 20.5444C71.3298 20.8818 71.5172 20.9942 71.7233 20.9942C72.1356 20.9942 72.7353 20.2071 73.4287 18.8578C74.1971 17.3772 75.1154 15.222 76.1087 12.6545C77.4393 12.7482 78.9573 13.4042 79.5008 13.9289C79.5008 15.2408 77.4393 19.6261 77.4393 21.519C77.4393 21.6314 77.458 21.7439 77.4955 21.8001C79.051 21.1629 80.0818 20.3758 80.7377 19.6824L80.7939 19.7386V20.2071ZM93.2338 20.0197C92.3342 21.0317 89.9354 22.6247 88.3611 22.6247C87.0305 22.6247 86.2996 21.9313 86.2996 20.7131C86.2996 20.0197 86.562 19.3825 87.5178 17.6958L86.8806 17.752C86.131 19.5512 84.8191 22.6247 82.7389 22.6247C81.2396 22.6247 80.1714 21.1254 80.1714 19.0264C80.1714 15.2595 82.2329 12.6545 85.2127 12.6545C86.2059 12.6545 86.9743 13.0668 87.4616 13.9102L87.2742 14.3787C86.8619 13.8352 86.3933 13.2542 85.7936 13.2542C84.9503 13.2542 84.2194 15.8405 84.2194 18.7641C84.2194 19.9447 84.4068 20.6007 84.7629 20.6007C85.0627 20.6007 85.4001 19.9822 86.0935 18.333C86.6182 17.1149 87.3304 15.3532 88.1925 12.8607C89.5606 13.0481 91.0598 13.7977 91.697 14.5099C91.697 15.1658 91.191 16.6463 90.685 18.0894C90.1978 19.5324 89.6917 20.9567 89.6917 21.519C89.6917 21.6314 89.7105 21.7439 89.748 21.8001C91.3035 21.1629 92.5216 20.1884 93.1776 19.495L93.2338 19.5512V20.0197ZM94.7347 22.6247C93.2729 22.6247 92.3733 21.8188 92.3733 20.5257C92.3733 19.7948 92.542 19.0264 92.9355 17.827L94.566 12.8607C94.997 11.5488 95.1844 10.7804 95.2782 10.0495L94.6035 8.83137L94.6597 8.55026C96.1402 8.38159 97.602 8.28789 99.1575 8.26915L99.4012 8.43781C99.4012 9.13123 99.0451 11.3989 98.0518 14.5286C97.5083 16.234 96.0653 19.9822 96.0653 21.3503C96.0653 21.519 96.1028 21.7251 96.1215 21.8001C97.1148 21.3878 98.689 20.357 99.3262 19.6449L99.3824 19.7011V20.1321C98.2017 21.4627 96.009 22.6247 94.7347 22.6247ZM108.015 22.0999C106.815 25.0235 104.023 27.0101 101.024 27.0101C99.2814 27.0101 97.3698 26.4478 97.1637 24.7611C97.7259 23.6554 99.0752 22.4185 100.181 21.9313C99.2814 21.6502 98.8316 20.9005 98.8316 19.9635C98.8316 19.2888 99.3189 18.2018 99.8249 17.0961C100.312 15.9717 100.799 14.8285 100.799 14.0601C100.799 13.779 100.687 13.704 100.518 13.704C100.331 13.704 99.9186 13.8165 99.7499 13.9289L99.6937 13.8914L99.7686 13.4604C100.35 13.0668 101.418 12.6545 102.449 12.6545C103.873 12.6545 104.51 13.3667 104.51 14.5848C104.51 15.2595 104.079 16.4027 103.667 17.4897C103.236 18.5579 102.823 19.5512 102.823 19.9822C102.823 20.3196 103.011 20.432 103.217 20.432C103.517 20.432 103.967 19.9447 104.529 19.0077C105.278 17.7146 106.216 15.6156 107.153 12.8419C108.296 13.0293 110.001 13.6665 110.657 14.5099C110.432 15.0721 108.802 20.2071 108.015 22.0999ZM100.406 23.1307C100.406 24.6862 101.268 26.3166 102.711 26.3166C103.217 26.3166 103.779 24.8174 104.36 22.9808C104.922 21.1629 105.503 19.0264 106.066 17.6771L105.691 17.752C105.428 18.2768 105.147 18.7828 104.847 19.2701C103.892 20.8068 102.692 22.0625 101.081 22.0625C100.893 22.0625 100.724 22.0437 100.556 22.025C100.462 22.3811 100.406 22.7559 100.406 23.1307Z" fill="#10100F"/>
</g>
<defs>
<clipPath id="clip0_95_9741">
<rect width="71.3364" height="30.2273" fill="white" transform="translate(39.3682)"/>
</clipPath>
</defs>
</svg>
