<svg width="140" height="19" viewBox="0 0 140 19" fill="none" xmlns="http://www.w3.org/2000/svg">
<path d="M4.51332 18.6794C4.03082 18.9269 3.48332 18.4931 3.58082 17.9394L4.61832 12.0269L0.214567 7.83187C-0.196683 7.43937 0.0170668 6.72188 0.568317 6.64438L6.69082 5.77437L9.42082 0.365625C9.66707 -0.121875 10.3333 -0.121875 10.5796 0.365625L13.3096 5.77437L19.4321 6.64438C19.9833 6.72188 20.1971 7.43937 19.7846 7.83187L15.3821 12.0269L16.4196 17.9394C16.5171 18.4931 15.9696 18.9269 15.4871 18.6794L9.99832 15.8594L4.51332 18.6794Z" fill="#EBAF41"/>
<path d="M34.5133 18.6794C34.0308 18.9269 33.4833 18.4931 33.5808 17.9394L34.6183 12.0269L30.2146 7.83187C29.8033 7.43937 30.0171 6.72188 30.5683 6.64438L36.6908 5.77437L39.4208 0.365625C39.6671 -0.121875 40.3333 -0.121875 40.5796 0.365625L43.3096 5.77437L49.4321 6.64438C49.9833 6.72188 50.1971 7.43937 49.7846 7.83187L45.3821 12.0269L46.4196 17.9394C46.5171 18.4931 45.9696 18.9269 45.4871 18.6794L39.9983 15.8594L34.5133 18.6794Z" fill="#EBAF41"/>
<path d="M64.5133 18.6794C64.0308 18.9269 63.4833 18.4931 63.5808 17.9394L64.6183 12.0269L60.2146 7.83187C59.8033 7.43937 60.0171 6.72188 60.5683 6.64438L66.6908 5.77437L69.4208 0.365625C69.6671 -0.121875 70.3333 -0.121875 70.5796 0.365625L73.3096 5.77437L79.4321 6.64438C79.9833 6.72188 80.1971 7.43937 79.7846 7.83187L75.3821 12.0269L76.4196 17.9394C76.5171 18.4931 75.9696 18.9269 75.4871 18.6794L69.9983 15.8594L64.5133 18.6794Z" fill="#EBAF41"/>
<path d="M94.5136 18.6794C94.0311 18.9269 93.4836 18.4931 93.5811 17.9394L94.6186 12.0269L90.2148 7.83187C89.8036 7.43937 90.0173 6.72188 90.5686 6.64438L96.6911 5.77437L99.4211 0.365625C99.6673 -0.121875 100.334 -0.121875 100.58 0.365625L103.31 5.77437L109.432 6.64438C109.984 6.72188 110.197 7.43937 109.785 7.83187L105.382 12.0269L106.42 17.9394C106.517 18.4931 105.97 18.9269 105.487 18.6794L99.9986 15.8594L94.5136 18.6794Z" fill="#EBAF41"/>
<path d="M124.514 18.6794C124.031 18.9269 123.484 18.4931 123.581 17.9394L124.619 12.0269L120.215 7.83187C119.804 7.43937 120.017 6.72188 120.569 6.64438L126.691 5.77437L129.421 0.365625C129.667 -0.121875 130.334 -0.121875 130.58 0.365625L133.31 5.77437L139.432 6.64438C139.984 6.72188 140.197 7.43937 139.785 7.83187L135.382 12.0269L136.42 17.9394C136.517 18.4931 135.97 18.9269 135.487 18.6794L129.999 15.8594L124.514 18.6794Z" fill="#EBAF41"/>
</svg>
