<svg width="123" height="31" viewBox="0 0 123 31" fill="none" xmlns="http://www.w3.org/2000/svg">
<path d="M21.1164 4.80409C21.6172 4.30198 21.927 3.60923 21.927 2.84406C21.927 1.31119 20.6845 0.0686035 19.1516 0.0686035C18.1825 0.0686035 17.3305 0.56597 16.8341 1.31859C16.7023 1.45074 1.46287 20.2319 1.35974 20.3884C0.858877 20.8905 0.549072 21.5832 0.549072 22.3484C0.549072 23.8813 1.79166 25.1239 3.32453 25.1239C4.29359 25.1239 5.14557 24.6265 5.64196 23.8739C5.7737 23.7416 21.0132 4.96039 21.1164 4.80409Z" fill="#10100F"/>
<path d="M24.4732 15.0302C24.9753 14.528 25.2859 13.8342 25.2859 13.0679C25.2859 11.5351 24.0433 10.2925 22.5104 10.2925C21.5409 10.2925 20.6886 10.7904 20.1923 11.5436C20.0593 11.6766 9.70688 24.4806 9.60291 24.6383C9.10079 25.1406 8.79028 25.8343 8.79028 26.6006C8.79028 28.1335 10.0329 29.3761 11.5657 29.3761C12.5352 29.3761 13.3875 28.8783 13.8839 28.1249C14.0169 27.992 24.3694 15.1879 24.4732 15.0302Z" fill="#10100F"/>
<path d="M4.47653 9.37884C6.00931 9.37884 7.25188 8.13627 7.25188 6.60348C7.25188 5.07069 6.00931 3.82812 4.47653 3.82812C2.94374 3.82812 1.70117 5.07069 1.70117 6.60348C1.70117 8.13627 2.94374 9.37884 4.47653 9.37884Z" fill="#10100F"/>
<path d="M27.7481 9.38237C29.2809 9.38237 30.5235 8.13977 30.5235 6.60696C30.5235 5.07414 29.2809 3.83154 27.7481 3.83154C26.2153 3.83154 24.9727 5.07414 24.9727 6.60696C24.9727 8.13977 26.2153 9.38237 27.7481 9.38237Z" fill="#10100F"/>
<g clip-path="url(#clip0_95_9754)">
<path d="M43.7555 21.7231L39.6349 7.8718H41.0858L43.8909 17.3898C44.0844 18.0669 44.2585 18.7633 44.4326 19.6725C44.6647 18.6666 44.8582 18.0669 45.071 17.3898L48.0889 7.8718H49.5398L52.5577 17.3898C52.7705 18.0862 52.9639 18.7826 53.1767 19.6725C53.3895 18.6085 53.5636 17.9314 53.7184 17.4091L56.5815 7.8718H57.9937L53.8345 21.7231H52.519L48.8047 9.96111L45.0903 21.7231H43.7555ZM58.6163 21.7231H57.2041L62.2919 7.8718H64.0137L69.1596 21.7231H67.7086L66.3545 18.0475H59.9705L58.6163 21.7231ZM62.969 9.82569L60.3961 16.8287H65.9095L63.3172 9.82569C63.2592 9.63224 63.1625 9.40009 63.1431 9.26467C63.1238 9.38074 63.0464 9.63224 62.969 9.82569ZM72.9739 15.9389L68.273 7.8718H69.84L73.2641 13.8495C73.4189 14.1397 73.5349 14.3719 73.6704 14.6814C73.8445 14.3332 73.8445 14.3332 74.096 13.8495L77.4814 7.8718H79.0097L74.3668 15.9389V21.7231H72.9739V15.9389ZM83.2501 7.58162V19.4404H89.1699V21.7231H80.7739V7.58162H83.2501ZM93.6597 7.58162V21.7231H91.1834V7.58162H93.6597ZM99.2319 21.7231H96.7944V7.58162H99.2513L105.887 17.6026V7.58162H108.324V21.7231H105.887L99.2319 11.7022V21.7231ZM120.237 21.7231H111.455V7.58162H120.237V9.86438H113.931V13.5013H119.58V15.6874H113.931V19.4404H120.237V21.7231Z" fill="#10100F"/>
</g>
<defs>
<clipPath id="clip0_95_9754">
<rect width="82" height="30" fill="white" transform="translate(39.5864)"/>
</clipPath>
</defs>
</svg>
