<svg width="110" height="32" viewBox="0 0 110 32" fill="none" xmlns="http://www.w3.org/2000/svg">
<path fill-rule="evenodd" clip-rule="evenodd" d="M0.809463 18.3125C0.69751 18.3125 0.69751 18.3125 0.69751 18.3125C1.70509 25.4775 7.63859 30.8512 14.8036 31.299C14.9155 31.299 15.0275 31.299 15.2514 31.299C15.4753 31.299 15.6992 31.299 15.9231 31.299C16.259 31.299 16.5948 31.299 16.9307 31.299C23.9837 30.8512 29.8053 25.4775 30.9248 18.3125C30.8128 18.3125 30.8128 18.3125 30.8128 18.3125C29.6933 18.3125 28.6857 18.4245 27.5662 18.6484C26.3347 24.134 21.5207 28.0524 15.8111 28.0524C10.2135 28.0524 5.28758 24.134 4.16805 18.5364C3.04852 18.4245 1.92899 18.3125 0.809463 18.3125Z" fill="#10100F"/>
<path fill-rule="evenodd" clip-rule="evenodd" d="M15.8111 0.847656C15.4753 0.847656 15.1394 0.847656 14.8036 0.847656C7.63859 1.40742 1.70509 6.78116 0.69751 13.9461H0.809463C1.92899 13.9461 2.93657 13.8342 4.0561 13.6103C5.28758 8.12459 10.1016 4.20624 15.6992 4.20624C21.2968 4.20624 26.2228 8.12459 27.3423 13.6103C28.3499 13.8342 29.4694 13.9461 30.5889 13.9461H30.7009C29.8053 6.78116 23.9837 1.40742 16.8187 0.959609C16.7068 0.959609 16.4829 0.959609 16.3709 0.959609C16.147 0.847656 15.9231 0.847656 15.8111 0.847656Z" fill="#10100F"/>
<path fill-rule="evenodd" clip-rule="evenodd" d="M28.2381 16.0736C23.3121 15.4018 18.834 12.8269 15.8113 8.79663C12.7886 12.8269 8.31045 15.4018 3.38452 16.0736C8.31045 16.7453 12.9005 19.4322 15.8113 23.4625C18.834 19.4322 23.3121 16.7453 28.2381 16.0736Z" fill="#10100F"/>
<g clip-path="url(#clip0_95_9762)">
<path d="M43.4757 23.3661V10.7069H46.4682V23.3661H43.4757ZM40.5739 10.7069H49.37V13.1553H40.5739V10.7069ZM40.5739 20.9177H49.37V23.3661H40.5739V20.9177ZM56.9218 23.5837C55.8578 23.5837 54.9389 23.3721 54.1651 22.949C53.4033 22.5258 52.8169 21.9212 52.4058 21.1353C52.0068 20.3494 51.8073 19.4124 51.8073 18.3242C51.8073 17.2118 52.0189 16.2627 52.4421 15.4768C52.8774 14.6909 53.4819 14.0924 54.2558 13.6813C55.0296 13.2702 55.9424 13.0646 56.9943 13.0646C57.9133 13.0646 58.7233 13.2279 59.4246 13.5543C60.138 13.8808 60.7002 14.3402 61.1113 14.9327C61.5345 15.513 61.7642 16.2083 61.8005 17.0184H58.9712C58.8745 16.4622 58.6568 16.0511 58.3183 15.7851C57.9918 15.507 57.5505 15.368 56.9943 15.368C56.5349 15.368 56.1238 15.4828 55.7611 15.7125C55.4104 15.9423 55.1323 16.2748 54.9268 16.71C54.7333 17.1453 54.6366 17.6834 54.6366 18.3242C54.6366 19.2794 54.8543 20.0169 55.2895 20.5368C55.7369 21.0567 56.281 21.3167 56.9218 21.3167C57.2966 21.3167 57.6231 21.2502 57.9012 21.1172C58.1913 20.9842 58.4332 20.7968 58.6266 20.555C58.8201 20.301 58.9531 20.0169 59.0256 19.7025H61.8549C61.7823 20.4885 61.5284 21.1716 61.0932 21.752C60.6579 22.3323 60.0836 22.7857 59.3702 23.1122C58.6568 23.4265 57.8407 23.5837 56.9218 23.5837ZM68.5724 23.5837C67.4963 23.5837 66.5714 23.3721 65.7976 22.949C65.0237 22.5258 64.4252 21.9212 64.0021 21.1353C63.591 20.3494 63.3854 19.4124 63.3854 18.3242C63.3854 17.2239 63.591 16.2869 64.0021 15.513C64.4252 14.7271 65.0237 14.1226 65.7976 13.6994C66.5714 13.2762 67.4963 13.0646 68.5724 13.0646C70.1926 13.0646 71.4561 13.5301 72.3629 14.4611C73.2818 15.3921 73.7413 16.6798 73.7413 18.3242C73.7413 19.4124 73.5357 20.3494 73.1247 21.1353C72.7136 21.9212 72.1211 22.5258 71.3473 22.949C70.5735 23.3721 69.6485 23.5837 68.5724 23.5837ZM68.5724 21.2985C69.2979 21.2985 69.8662 21.0325 70.2772 20.5005C70.7004 19.9685 70.912 19.2431 70.912 18.3242C70.912 17.3932 70.7004 16.6677 70.2772 16.1478C69.8662 15.6158 69.2979 15.3498 68.5724 15.3498C67.8349 15.3498 67.2545 15.6158 66.8313 16.1478C66.4202 16.6677 66.2147 17.3932 66.2147 18.3242C66.2147 19.2431 66.4202 19.9685 66.8313 20.5005C67.2545 21.0325 67.8349 21.2985 68.5724 21.2985ZM82.345 23.3661V17.1453C82.345 16.6254 82.212 16.2083 81.946 15.8939C81.68 15.5795 81.3294 15.4224 80.8941 15.4224C80.3984 15.4224 79.9389 15.5916 79.5157 15.9302C79.1046 16.2566 78.6694 16.8249 78.2099 17.635L77.8109 15.241C78.2704 14.4551 78.8266 13.8989 79.4795 13.5725C80.1324 13.2339 80.7974 13.0646 81.4745 13.0646C82.2483 13.0646 82.9072 13.2279 83.4513 13.5543C84.0075 13.8808 84.4307 14.3342 84.7209 14.9145C85.0231 15.4949 85.1743 16.178 85.1743 16.964V23.3661H82.345ZM75.6164 23.3661V13.2823H78.355L78.4457 15.0778V23.3661H75.6164ZM90.7492 23.3661V13.2823H93.5785V23.3661H90.7492ZM87.4847 23.3661V21.0809H96.8793V23.3661H87.4847ZM88.7542 15.5675V13.2823H92.1639V15.5675H88.7542ZM90.6404 11.9402V9.29227H93.6511V11.9402H90.6404ZM104.105 23.5837C103.041 23.5837 102.122 23.3721 101.348 22.949C100.586 22.5258 99.9998 21.9212 99.5887 21.1353C99.1897 20.3494 98.9902 19.4124 98.9902 18.3242C98.9902 17.2118 99.2018 16.2627 99.625 15.4768C100.06 14.6909 100.665 14.0924 101.439 13.6813C102.212 13.2702 103.125 13.0646 104.177 13.0646C105.096 13.0646 105.906 13.2279 106.608 13.5543C107.321 13.8808 107.883 14.3402 108.294 14.9327C108.717 15.513 108.947 16.2083 108.983 17.0184H106.154C106.057 16.4622 105.84 16.0511 105.501 15.7851C105.175 15.507 104.733 15.368 104.177 15.368C103.718 15.368 103.307 15.4828 102.944 15.7125C102.593 15.9423 102.315 16.2748 102.11 16.71C101.916 17.1453 101.82 17.6834 101.82 18.3242C101.82 19.2794 102.037 20.0169 102.472 20.5368C102.92 21.0567 103.464 21.3167 104.105 21.3167C104.48 21.3167 104.806 21.2502 105.084 21.1172C105.374 20.9842 105.616 20.7968 105.81 20.555C106.003 20.301 106.136 20.0169 106.209 19.7025H109.038C108.965 20.4885 108.711 21.1716 108.276 21.752C107.841 22.3323 107.266 22.7857 106.553 23.1122C105.84 23.4265 105.024 23.5837 104.105 23.5837Z" fill="#10100F"/>
</g>
<defs>
<clipPath id="clip0_95_9762">
<rect width="68.9182" height="30.2273" fill="white" transform="translate(40.2954 1.22729)"/>
</clipPath>
</defs>
</svg>
