<svg width="95" height="101" viewBox="0 0 95 101" fill="none" xmlns="http://www.w3.org/2000/svg">
<path d="M48.3488 19.6944C49.1109 18.0009 48.0948 16.4768 46.0626 16.3074C45.3005 18.0856 46.3166 19.6097 48.3488 19.6944Z" fill="#163020"/>
<path d="M53.514 20.7105C52.6673 19.1016 50.6351 18.8476 48.9417 20.0331C49.8731 21.6419 51.9052 21.8959 53.514 20.7105Z" fill="#163020"/>
<path d="M78.2388 17.7469C80.1016 17.8315 81.2871 16.4768 80.9484 14.6139C79.0856 14.6139 77.9001 15.9687 78.2388 17.7469Z" fill="#163020"/>
<path d="M67.316 16.1381C65.5378 15.7147 64.0983 16.8154 64.0137 18.6783C65.7918 19.1016 67.2313 18.0009 67.316 16.1381Z" fill="#163020"/>
<path d="M74.4285 14.2752C76.4606 16.0534 79.1702 15.63 80.525 13.2592C78.4928 11.3963 75.7833 11.8197 74.4285 14.2752Z" fill="#163020"/>
<path d="M87.2144 27.8231C88.0611 30.3633 90.6013 31.2947 92.9722 29.9399C92.1255 27.3997 89.5852 26.4683 87.2144 27.8231Z" fill="#163020"/>
<path d="M88.1458 35.4437C90.6013 36.3751 92.6335 35.105 92.7181 32.5648C90.3473 31.6334 88.3151 32.9035 88.1458 35.4437Z" fill="#163020"/>
<path d="M86.6215 54.326C86.1981 54.4954 85.7748 54.58 85.3514 54.6647C87.2989 52.8866 87.2142 50.2617 85.0974 48.3988C82.6418 50.0923 82.3031 52.8019 84.166 54.8341C79.7629 55.3421 75.2752 53.818 70.6181 53.9027C73.4124 52.0398 75.8679 50.431 78.2388 48.8222C81.9644 50.177 85.5207 48.3142 86.1135 44.5885C82.3031 43.0644 78.7468 44.7579 77.9848 48.4835C75.5292 49.4996 71.2955 51.1931 69.1787 52.1245L68.1626 52.5479C67.7392 51.2778 67.4852 49.4149 68.1626 46.9594C70.5334 44.8425 70.8721 41.7943 68.7553 39.8468C65.8764 41.8789 65.3683 45.1812 67.4005 47.2981C66.8925 48.3988 66.4691 50.2617 66.7231 52.9712L61.2193 54.7494C61.2193 51.7858 61.05 48.7375 61.2193 45.6046C61.3887 41.8789 62.8281 36.8832 65.8764 35.8671C68.5013 35.0204 71.2955 34.597 73.8357 33.4962C76.63 32.3108 78.6621 32.8188 80.6096 34.5123C80.1016 36.4598 80.1016 37.8146 80.3556 38.746C78.6622 40.0161 78.6622 42.387 80.3556 44.1651C82.0491 43.0644 82.2185 40.8629 80.779 39.0847C80.6097 37.3912 80.9483 36.1211 81.3717 35.2744C82.6418 36.3751 84.0813 36.5445 85.7748 35.9518C86.3675 35.7824 86.9602 35.9518 87.4683 36.2905C85.2667 37.2219 84.928 39.6774 86.7062 41.8789C88.823 40.8629 89.1617 38.4073 87.5529 36.3751C87.9763 36.6292 88.3997 36.8832 88.823 36.9679C89.4157 39.9314 92.0406 41.7096 94.9196 40.9475C94.4962 37.8146 91.8713 35.8671 88.9077 36.4598C87.9763 35.6977 87.1296 34.597 85.9441 35.0204C84.0813 35.6977 82.6418 35.4437 81.4564 33.9196C80.8637 33.2422 80.1016 32.7342 79.1702 31.9721C81.7104 31.21 85.2667 28.9238 87.5529 26.6376C91.0246 26.9763 93.3954 24.5208 92.9721 21.1338C89.6698 20.7951 87.3836 23.0813 87.4683 26.1296C87.0449 26.4683 86.7062 26.807 86.2828 27.061C87.6376 24.6901 86.5368 22.2346 83.9119 21.5572C82.5572 23.9281 83.6579 26.3836 86.2828 27.061C82.8112 29.6859 77.9001 31.464 73.7511 32.3955C73.7511 31.3794 74.0898 29.8552 75.2752 28.2464C77.5614 27.315 78.6621 25.1982 77.6461 23.166C75.0212 23.9281 73.6664 26.1296 74.5978 28.2464C73.8357 29.0085 73.0737 30.2786 72.4809 32.5648C70.6181 32.9035 69.094 32.9882 67.9086 32.9882C68.1626 31.6334 68.2472 30.1939 68.6706 28.8391C69.6867 25.6215 69.2633 21.7265 73.4124 19.6944C74.5978 19.1016 76.5453 18.6783 77.9001 18.4242C76.63 19.6944 76.7993 21.5572 78.3235 22.4886C79.6782 21.2185 79.5089 19.4403 77.9848 18.3396C78.4081 18.2549 78.8315 18.1702 79.0009 18.1702C78.9162 18.1702 78.8315 18.2549 78.8315 18.2549C79.6782 20.4564 81.8798 21.1338 83.8273 19.8637C83.0652 17.8315 81.033 17.0695 79.1702 18.0856C78.2388 17.7469 74.5978 17.5775 72.989 18.1702C73.9204 16.7308 73.6664 14.5292 74.4285 12.6664C77.3074 11.1423 78.0694 7.92467 76.0373 5.29978C72.989 6.73923 72.1423 10.0415 74.0898 12.7511C73.8357 13.0898 73.5817 13.4285 73.4124 13.8519C73.243 11.227 71.1262 9.61815 68.5013 10.2955C68.5859 13.0051 70.7875 14.6139 73.3277 13.9365C72.989 14.6139 72.735 15.376 72.5656 16.138C72.3116 16.9848 71.8882 17.8315 71.2955 18.6783C71.0415 17.9162 70.1948 16.3921 67.6545 15.4607C69.1787 14.4446 69.348 12.6664 67.9932 11.3963C66.4691 12.3277 66.2997 14.1905 67.4852 15.4607C67.2312 15.376 66.8925 15.2913 66.6384 15.2066C66.1304 13.0898 64.1829 12.0737 62.1507 12.9204C62.5741 15.2066 64.5216 16.3074 66.7231 15.4607C67.8239 16.3074 69.9407 18.1702 70.6181 19.9484C69.7714 21.3032 68.9246 22.7426 68.5859 24.4361C68.1626 26.2989 67.9932 28.2464 67.1465 29.8552C66.0457 31.7181 64.5216 33.4962 62.8281 34.9357C61.3887 36.2058 60.2032 37.4759 59.5258 39.0847C56.8163 38.6613 54.5301 40.3548 54.1067 43.3184C55.9695 43.9111 57.7477 43.4878 58.9331 42.2176C58.9331 44.1651 58.5097 46.1126 58.3404 48.2295C54.8688 46.7054 54.1067 44.1651 53.768 41.4556C55.8848 38.6613 55.4615 35.3591 52.9213 33.4115C55.1228 32.9882 56.9856 31.8874 58.6791 30.1939C58.6791 30.2786 58.5944 30.3633 58.5944 30.448C61.6427 31.7181 64.5216 30.2786 65.0296 27.2303C62.1507 26.0449 59.4412 27.2303 58.6791 29.9399C55.7155 31.6334 52.7519 33.3269 49.0263 31.464C50.9738 29.7706 53.3446 28.5005 55.5461 27.061C55.3768 28.3311 55.9695 29.6859 57.3243 30.5326C58.9331 29.0932 58.9331 27.061 57.4937 25.6215C58.8484 24.5208 59.9492 23.2507 60.7959 21.5572C63.6749 20.3717 64.6063 17.3235 62.9128 14.6986C60.0339 15.7994 59.0178 18.6783 60.3726 21.3032C60.1185 21.5572 59.9492 21.8959 59.6952 22.2346C59.6105 19.9484 57.8323 18.4242 55.4615 18.8476C55.4615 18.9323 55.4615 19.017 55.4615 19.1016C55.2075 18.6783 54.9534 18.2549 54.7841 17.8315C53.6833 15.7147 52.6672 13.5132 51.9052 11.227C51.7358 10.7189 52.4132 9.70282 53.0059 9.19478C54.022 8.34804 55.7155 6.99326 56.7316 6.06184C59.5258 7.24728 62.1507 6.06184 62.7434 3.2676C60.1185 2.08216 57.4936 3.18293 56.8163 5.72315C55.0381 6.73923 53.3446 7.75532 51.3971 9.02543L49.873 4.36836C49.9577 1.99749 48.4335 0.134662 46.0627 0.0499878C45.2159 2.9289 46.8247 5.38445 49.5343 5.5538C49.619 5.89249 49.7036 6.31586 49.7883 6.65456C48.0948 5.2151 45.8933 5.80782 44.8772 7.84C46.5707 9.36413 48.7722 8.85608 49.7883 6.82391C49.9577 7.33195 49.9577 7.84 49.9577 8.43271C49.873 10.7189 50.381 13.0898 51.3124 15.2913C49.7036 15.9687 48.8569 17.4082 49.1956 19.1016C48.5182 19.6097 47.5868 20.5411 46.8247 22.1499C45.4699 20.8798 43.7765 19.8637 42.6757 18.4242C42.4217 18.0856 42.083 17.5775 41.7443 17.0695C45.724 16.7308 48.0948 13.0898 46.9941 9.02543C43.0144 9.36413 40.6435 12.8358 41.6596 16.9001C41.2362 16.2227 40.7282 15.4607 40.3895 14.8679C41.4056 10.1262 38.7807 6.06184 34.039 5.63847C32.2608 10.8036 34.9704 15.4607 40.1355 15.9687C40.2202 15.7147 40.2201 15.5453 40.3048 15.2913C41.4056 17.4928 42.591 19.6944 43.7765 22.1499C42.591 22.4886 40.8975 23.0813 39.7121 23.5894C36.7485 22.3193 33.7849 23.674 33.1075 26.7223C35.9865 28.1618 38.8654 27.061 39.8815 24.3514C40.3895 24.2668 40.7282 24.0974 41.2362 23.9281C39.4581 25.5369 39.6274 27.9924 41.7443 29.5165C43.7765 27.9077 43.6918 25.3675 41.5749 23.7587C42.083 23.5894 42.845 23.2507 44.1152 22.9966C46.1473 22.4886 47.0787 23.9281 47.2481 25.7062C47.4174 26.8916 47.5868 28.0771 47.5868 29.2625C47.5868 29.6859 47.3328 30.3633 46.9941 30.5326C45.2159 31.5487 44.4539 32.9882 44.1152 34.597C43.5224 34.2583 42.845 33.7502 42.1677 32.9035C41.9136 30.8713 40.4742 29.6012 38.696 30.0246C38.696 32.2261 40.2202 33.7502 42.083 33.4115C42.4217 33.9196 43.0144 34.597 43.9458 35.3591C43.8611 35.9518 43.8611 36.6292 43.8611 37.3065C43.8611 38.746 43.7765 40.6088 42.845 41.6249C40.2202 44.5038 37.4259 47.2134 36.3251 51.1084C35.6478 48.3142 35.2244 45.774 35.055 43.2337C37.2566 44.5038 39.7968 43.4878 40.7282 40.9475C38.5267 39.6774 36.0711 40.6088 35.055 43.0644C35.055 42.9797 35.055 42.8104 35.055 42.7257C35.055 42.387 35.055 42.0483 35.055 41.7096C37.4259 39.6774 37.5953 36.5445 35.3091 34.5123C32.6842 36.3751 32.2608 39.5081 34.2083 41.6249C34.1236 42.133 34.0389 42.7257 33.9543 43.2337C33.4462 40.6935 31.0754 39.5927 28.7045 40.7782C29.2125 43.4031 31.4987 44.5038 33.9543 43.3184C33.7003 44.8425 33.5309 46.4513 33.1075 48.3988C32.5148 47.9755 31.4141 46.028 30.7367 45.774C26.0796 44.5038 24.1321 41.2016 22.6926 37.3065C22.608 37.0525 22.4386 36.7985 22.3539 36.5445C22.9467 35.6977 24.0474 34.5123 26.1643 33.8349C28.6198 34.4276 30.7367 33.2422 30.9907 31.0407C28.3658 30.1093 25.9949 31.21 25.5716 33.4962C24.6401 33.6656 23.37 34.1736 21.8459 35.4437C21.5072 34.851 21.2532 34.2583 20.9992 33.6656C20.8298 33.2422 20.5758 32.5648 20.8298 32.2261C22.7773 29.6012 21.8459 25.7062 25.3175 23.7587C25.5716 23.5894 25.6562 23.2507 25.7409 22.9966C25.9949 21.8112 26.757 19.779 27.4344 18.0856C28.6198 19.6097 30.652 19.6944 32.0914 18.2549C30.9907 16.7308 28.9585 16.5614 27.5191 17.9162C27.6884 17.5775 27.7731 17.2388 27.8577 16.9848C30.1439 16.3074 31.2447 14.1905 30.3133 11.989C27.7731 12.4971 26.503 14.6986 27.4344 16.9001C26.6723 17.8315 25.8256 18.9323 25.4869 19.6097C23.7087 17.5775 22.0152 15.7147 20.4064 13.8519C20.4911 13.8519 20.4911 13.8519 20.4911 13.8519C21.3379 9.87217 18.967 6.65456 15.1566 6.73923C14.3099 10.5496 16.5114 13.6825 20.1524 13.7672C21.4225 16.1381 23.0313 18.2549 24.3014 20.5411C24.7248 21.2185 24.4708 23.0813 23.8781 23.3353C21.8459 24.2668 21.2532 25.8756 20.7451 27.6537C20.4911 28.5851 19.9831 29.4319 19.3903 30.5326C18.713 29.5165 17.7815 28.0771 17.0195 26.807C17.9509 23.5894 16.2574 20.6258 13.1245 20.2024C12.1084 23.42 13.6325 26.3836 16.6808 26.9763C18.0356 30.1093 20.8298 36.4598 22.2693 39.7621C18.1202 38.9154 14.3099 38.238 10.4996 37.4759C7.79001 33.4115 3.21761 32.8188 0 35.9518C2.62489 40.1855 7.36664 40.9475 10.6689 37.8146C14.5639 39 20.1524 40.6088 20.9145 40.9475C21.6765 41.2862 22.4386 41.7943 23.0313 42.387C24.5555 43.8265 25.9949 45.2659 27.5191 46.7054C29.3819 48.4835 31.5834 50.0077 33.1075 51.8705C32.1761 52.4632 31.6681 53.564 31.7528 54.9187C31.5834 54.7494 31.4141 54.4954 31.2447 54.4107C32.0914 52.0398 31.16 49.923 29.0432 49.5843C28.1118 51.8705 28.8738 53.9873 30.7367 54.58C32.3455 56.9509 32.3455 58.6444 32.1761 59.5758C30.398 58.9831 28.7892 58.1364 27.265 57.0356C26.4183 56.3582 25.4869 55.5115 24.4708 55.2574C23.8781 55.0881 23.2007 55.0034 22.5233 54.9187C24.3861 52.7172 23.7087 49.4996 20.9145 47.6368C19.0517 49.7536 19.6444 52.9712 22.2693 54.9187C21.7612 54.8341 21.2532 54.7494 20.6605 54.6647C18.713 51.1931 15.072 49.923 12.2777 52.0398C14.0559 55.7655 17.5275 57.2049 20.4911 55.4268C21.1685 55.5961 21.9306 55.7655 22.608 56.0195C23.8781 56.3582 25.2329 56.8662 26.1643 57.713C26.503 58.0517 26.9263 58.3904 27.265 58.7291C27.4344 59.9145 27.5191 62.5394 25.4022 65.4183C22.3539 66.6038 20.9992 69.4827 22.3539 72.0229C25.8256 71.0068 27.5191 68.1279 26.2489 65.3336C27.1804 64.4022 28.2811 62.7088 28.9585 59.8298C31.16 61.1846 33.7003 61.862 36.4098 62.2007C41.0669 62.7088 43.4378 63.9789 43.9458 68.3819C44.5385 73.293 44.4539 78.2888 44.4539 83.1999C44.4539 89.6351 41.829 95.0542 37.0872 99.7113C37.0025 99.796 36.8332 99.9653 36.7485 100.05H64.6909C60.2879 96.663 57.917 92.6834 56.9856 87.9416C55.7155 81.4217 55.6308 74.8171 57.2396 68.3819C58.3404 63.8942 60.5419 59.7452 64.6909 56.8662C65.5377 57.459 66.7231 58.6444 67.3158 60.7612C66.6384 63.1321 67.7392 65.3336 69.9407 65.757C70.9568 63.2168 69.9407 60.7612 67.7392 60.2532C67.5699 59.3218 67.1465 57.8823 65.7917 56.1889C69.094 54.4107 74.3438 55.6808 75.6986 59.2371C76.1219 60.3379 76.7147 61.0999 77.4767 61.608C74.9365 63.3861 74.6825 66.6038 76.9687 68.9746C79.5089 67.2812 79.8476 64.1482 77.7307 61.7773C78.1541 62.0314 78.6622 62.2007 79.1702 62.2854C80.1016 66.0957 83.4039 67.9585 86.8755 66.5191C86.1981 62.5394 82.8959 60.4226 79.3395 61.608C78.4928 61.354 77.6461 60.8459 77.138 60.2532C76.1219 58.8137 75.4445 57.2049 74.5978 55.6808C81.3717 55.6808 84.2506 55.6808 86.1135 55.0881C86.1135 55.1728 86.0288 55.2574 85.9441 55.3421C89.4157 57.2896 93.2261 56.0195 94.5809 52.3785C91.6173 50.5157 88.2303 51.4471 86.6215 54.326ZM59.1871 22.5733C58.7638 23.0813 58.4251 23.5894 58.0864 24.0974C57.7477 23.42 57.409 22.8273 57.0703 22.2346C57.663 22.5733 58.4251 22.7426 59.1871 22.5733ZM49.873 19.1016C51.0584 18.8476 51.9052 18.2549 52.4132 17.4928C52.7519 18.0856 53.1753 18.6783 53.5986 19.1863C54.6994 20.6258 54.8688 22.8273 55.2921 24.6901C55.3768 25.1135 55.0381 25.8756 54.6147 26.1296C53.0906 27.061 51.4818 27.9077 49.619 28.9238C49.3649 27.8231 49.3649 26.9763 49.0263 26.2143C48.6029 25.1135 48.3489 23.8434 47.6715 22.912C47.7561 22.0652 48.2642 20.5411 49.873 19.1016ZM33.1922 59.7452C33.1922 57.5436 32.6842 56.1042 32.0068 55.2574C33.0229 55.0881 33.8696 54.4107 34.293 53.3946C35.5631 55.5115 36.4945 57.8823 37.7646 60.4226C36.0711 60.3379 34.6317 60.0839 33.1922 59.7452ZM52.6672 63.2168C50.9738 64.2329 49.2803 64.1482 47.9255 63.1321C47.6715 62.8781 47.4174 62.7088 47.0787 62.4547C47.3328 61.4386 47.9255 60.1685 49.3649 58.8984C51.8205 58.4751 53.3446 56.5275 52.7519 54.4107C49.9577 54.58 48.2642 56.5275 48.7722 58.8138C48.0102 59.3218 47.0787 60.1685 46.232 61.7773C44.1998 60.1685 42.2523 58.4751 40.3048 56.6969C39.1194 55.5961 39.2041 54.4954 40.7282 54.072C42.6757 53.4793 43.6071 53.1406 44.2845 52.6325C44.9619 54.6647 47.1634 55.3421 49.1109 54.2414C48.4335 52.2938 46.3167 51.5318 44.4539 52.5479C44.7079 52.2938 44.9619 52.0398 45.1312 51.6165C47.7561 51.6165 49.5343 49.7536 49.1956 47.2134C46.5707 47.0441 44.7079 48.6529 44.7079 51.0237C44.4539 51.3624 44.1998 51.6165 43.8611 51.7858C44.7079 50.0077 43.7765 48.2295 41.7443 47.6368C40.7282 49.4149 41.4903 51.2778 43.4378 51.9552C42.7604 52.2092 41.6596 52.2938 39.6274 52.3785C40.5588 50.6004 41.3209 47.4674 42.5064 46.3667C45.6393 43.3184 46.7401 39.9314 46.232 35.8671C45.8933 33.2422 46.4014 32.9035 49.2803 33.4115C50.127 33.5809 50.8891 33.5809 51.6511 33.5809C49.5343 36.5445 50.0423 40.0161 53.0059 41.8789C53.0059 44.9272 53.8527 47.7215 56.9856 49.923C57.409 50.177 57.663 50.7697 57.8323 51.2778C59.1025 55.1728 56.5622 60.9306 52.6672 63.2168Z" fill="#163020"/>
<path d="M84.9281 56.3582C84.4201 59.3218 86.6216 61.608 89.8392 61.354C90.3473 58.3057 88.1457 56.1042 84.9281 56.3582Z" fill="#163020"/>
<path d="M78.0693 60.4226C81.1176 61.2693 83.5731 59.3218 83.5731 55.9349C80.6096 55.0881 78.0693 57.1203 78.0693 60.4226Z" fill="#163020"/>
<path d="M76.884 50.0076C76.9687 53.1406 79.5936 55.0881 82.8112 54.4954C82.8112 51.2778 80.1016 49.3303 76.884 50.0076Z" fill="#163020"/>
<path d="M76.2913 48.9069C78.6622 46.7901 78.2388 43.6571 75.4446 41.879C73.0737 43.9958 73.4971 47.1288 76.2913 48.9069Z" fill="#163020"/>
<path d="M45.8086 41.9636C46.994 44.9272 50.127 45.6046 52.6672 43.5725C51.4818 40.6089 48.3488 39.9315 45.8086 41.9636Z" fill="#163020"/>
<path d="M22.3539 56.1042C19.3057 55.8502 17.5275 58.3057 18.4589 61.5233C21.5072 61.7773 23.2853 59.4065 22.3539 56.1042Z" fill="#163020"/>
<path d="M12.447 38.746C8.72132 39.1694 6.85849 42.4717 8.29795 46.1127C12.1083 45.6893 13.8864 42.387 12.447 38.746Z" fill="#163020"/>
<path d="M12.5318 37.3066C14.6486 34.2583 13.4632 30.448 9.90687 28.8392C7.79002 31.8874 8.97546 35.6978 12.5318 37.3066Z" fill="#163020"/>
<path d="M14.2253 17.1542C16.6809 19.017 19.6445 18.1703 20.8299 15.2067C18.3744 13.2592 15.4108 14.1906 14.2253 17.1542Z" fill="#163020"/>
<path d="M24.8943 7.92468C21.9307 8.5174 20.4912 11.3963 21.6767 14.3599C24.6403 13.7672 26.0797 10.8883 24.8943 7.92468Z" fill="#163020"/>
<path d="M26.5877 17.4928C27.0957 15.5453 25.7409 14.0212 23.6241 14.1059C23.2007 16.0534 24.4708 17.5775 26.5877 17.4928Z" fill="#163020"/>
<path d="M17.1041 28.2464C15.2413 26.2989 12.7857 26.7223 11.5156 29.0932C13.2938 31.0407 15.834 30.6173 17.1041 28.2464Z" fill="#163020"/>
<path d="M17.951 27.6537C20.4912 27.5691 21.9307 25.1982 21.1686 22.4886C18.6284 22.658 17.189 24.9442 17.951 27.6537Z" fill="#163020"/>
<path d="M57.6631 31.3794C57.6631 33.8349 59.7799 35.4437 62.3202 34.9357C62.2355 32.3955 60.2033 30.8713 57.6631 31.3794Z" fill="#163020"/>
<path d="M60.4573 22.912C62.1508 24.7748 64.691 24.5208 66.1304 22.3193C64.437 20.4564 61.8967 20.7105 60.4573 22.912Z" fill="#163020"/>
<path d="M40.2203 18.0009C37.2567 15.122 33.1923 15.884 31.1602 19.6097C32.8536 21.3032 34.9705 21.7265 36.8333 21.0491C37.5954 22.2346 39.1195 22.912 40.8977 22.7426C40.9823 21.3032 40.305 20.1177 39.2889 19.4403C39.6276 19.017 39.9663 18.5089 40.2203 18.0009Z" fill="#163020"/>
<path d="M55.3769 6.06186C57.1551 4.53772 56.901 2.3362 54.9535 0.981415C53.1754 2.50555 53.4294 4.70707 55.3769 6.06186Z" fill="#163020"/>
<path d="M55.8003 6.90858C55.8003 9.19478 57.6631 10.6342 60.034 10.2955C60.034 8.00934 58.1712 6.48521 55.8003 6.90858Z" fill="#163020"/>
<path d="M53.3445 1.57413C51.0583 1.91282 49.8729 3.945 50.635 6.2312C52.8365 5.8925 54.1066 3.86033 53.3445 1.57413Z" fill="#163020"/>
<path d="M31.1601 55.5961C30.0593 54.1567 28.2812 54.4107 27.1804 56.1042C28.2812 57.6283 30.144 57.3743 31.1601 55.5961Z" fill="#163020"/>
<path d="M27.2651 64.1482C26.6723 66.6884 28.4505 68.4666 31.2447 68.1279C31.9221 65.5877 30.144 63.8095 27.2651 64.1482Z" fill="#163020"/>
<path d="M26.3337 63.8095C24.8095 61.862 21.8459 62.0314 19.8984 64.0635C21.5072 66.011 24.3862 65.8417 26.3337 63.8095Z" fill="#163020"/>
<path d="M70.7876 26.0449C70.2795 27.9924 71.6343 29.4319 73.8358 29.1779C74.4285 27.1457 72.9891 25.7909 70.7876 26.0449Z" fill="#163020"/>
<path d="M74.6824 29.4319C75.8678 30.956 78.0693 30.7866 79.5935 29.2625C78.408 27.7384 76.2065 27.8231 74.6824 29.4319Z" fill="#163020"/>
<path d="M67.5698 59.0678C68.8399 60.6766 70.7874 60.4226 71.8882 58.4751C70.6181 56.8663 68.6706 57.1203 67.5698 59.0678Z" fill="#163020"/>
<path d="M64.0135 63.5555C65.961 63.4708 67.2311 61.6927 66.8077 59.4911C64.9449 59.4911 63.6748 61.354 64.0135 63.5555Z" fill="#163020"/>
<path d="M61.8967 46.282C62.1508 48.9069 64.4369 49.923 66.9772 48.6529C66.6385 46.028 64.3523 45.0119 61.8967 46.282Z" fill="#163020"/>
<path d="M67.9087 48.5682C70.0255 49.8383 72.5658 48.7375 73.7512 46.1126C71.6343 44.9272 69.0095 46.028 67.9087 48.5682Z" fill="#163020"/>
<path d="M45.3854 55.7655C44.4539 57.6283 45.5547 59.2371 47.7562 59.4065C48.6876 57.6283 47.5869 56.0195 45.3854 55.7655Z" fill="#163020"/>
<path d="M48.5183 59.9145C49.3651 61.608 51.5666 61.9467 53.3447 60.6766C52.498 58.9831 50.2965 58.6444 48.5183 59.9145Z" fill="#163020"/>
<path d="M23.7935 29.2625C22.2694 30.6173 22.6081 32.4802 24.5556 33.5809C26.0797 32.3108 25.741 30.3633 23.7935 29.2625Z" fill="#163020"/>
<path d="M24.9788 34.2583C25.0634 36.2058 26.9263 37.3912 29.1278 36.9679C28.9584 35.0204 27.0956 33.8349 24.9788 34.2583Z" fill="#163020"/>
<path d="M80.1863 37.6453C78.5775 36.4598 76.884 36.8832 76.376 38.6614C77.9001 39.9315 79.6783 39.4234 80.1863 37.6453Z" fill="#163020"/>
<path d="M80.8638 37.8146C81.2871 39.7621 82.9806 40.8629 84.6741 40.1855C84.2507 38.238 82.4726 37.1372 80.8638 37.8146Z" fill="#163020"/>
<path d="M42.5063 34.2583C41.0668 33.4962 39.712 34.2583 39.458 36.0365C40.8975 36.7985 42.2523 36.0365 42.5063 34.2583Z" fill="#163020"/>
<path d="M43.7764 29.7706C42.3369 30.448 41.9982 32.1414 42.9296 33.6656C44.3691 33.0729 44.7078 31.2947 43.7764 29.7706Z" fill="#163020"/>
</svg>
