<svg width="60" height="60" viewBox="0 0 60 60" fill="none" xmlns="http://www.w3.org/2000/svg">
<path d="M53.727 56.2199H14.0322C9.35998 56.2199 5.55298 52.4165 5.55298 47.7407C5.55298 43.0649 9.35998 39.2441 14.0322 39.2441H53.727C53.9179 39.2441 54.1011 39.32 54.2361 39.455C54.3711 39.59 54.447 39.7732 54.447 39.9641V55.4999C54.447 55.6909 54.3711 55.874 54.2361 56.0091C54.1011 56.1441 53.9179 56.2199 53.727 56.2199ZM14.0322 40.6841C10.1508 40.6841 6.99298 43.8497 6.99298 47.7407C6.99504 49.607 7.73733 51.3963 9.05699 52.7159C10.3767 54.0356 12.1659 54.7779 14.0322 54.7799H53.007V40.6841H14.0322Z" fill="#163020"/>
<path d="M49.9105 52.4034H14.0305C12.7957 52.3977 11.613 51.9046 10.7398 51.0315C9.86666 50.1583 9.3736 48.9756 9.36792 47.7408C9.36792 45.1608 11.4595 43.0608 14.0305 43.0608H49.9105C50.1015 43.0608 50.2846 43.1366 50.4196 43.2717C50.5547 43.4067 50.6305 43.5898 50.6305 43.7808V51.6834C50.6305 51.8743 50.5547 52.0575 50.4196 52.1925C50.2846 52.3275 50.1015 52.4034 49.9105 52.4034ZM14.0305 44.5008C13.1812 44.5124 12.3705 44.8579 11.774 45.4626C11.1774 46.0674 10.843 46.8826 10.843 47.7321C10.843 48.5815 11.1774 49.3968 11.774 50.0016C12.3705 50.6063 13.1812 50.9518 14.0305 50.9634H49.1905V44.5008H14.0305Z" fill="#163020"/>
<path d="M42.4031 48.4608H17.5967C17.4058 48.4608 17.2226 48.3849 17.0876 48.2499C16.9526 48.1148 16.8767 47.9317 16.8767 47.7408C16.8767 47.5498 16.9526 47.3667 17.0876 47.2316C17.2226 47.0966 17.4058 47.0208 17.5967 47.0208H42.4031C42.5941 47.0208 42.7772 47.0966 42.9122 47.2316C43.0473 47.3667 43.1231 47.5498 43.1231 47.7408C43.1231 47.9317 43.0473 48.1148 42.9122 48.2499C42.7772 48.3849 42.5941 48.4608 42.4031 48.4608Z" fill="#163020"/>
<path d="M29.9999 40.6842C26.3503 40.6844 22.7826 39.6023 19.7481 37.5748C16.7135 35.5472 14.3483 32.6653 12.9517 29.2935C11.555 25.9217 11.1897 22.2115 11.9018 18.632C12.6139 15.0526 14.3715 11.7647 16.9523 9.18419C18.6658 7.47076 20.7 6.11159 22.9387 5.1843C25.1775 4.25701 27.577 3.77976 30.0002 3.77979C32.4233 3.77981 34.8228 4.25712 37.0615 5.18446C39.3003 6.11181 41.3344 7.47102 43.0478 9.18449C44.7613 10.898 46.1204 12.9321 47.0477 15.1709C47.975 17.4096 48.4523 19.8091 48.4522 22.2323C48.4522 24.6555 47.9749 27.055 47.0476 29.2937C46.1202 31.5324 44.761 33.5666 43.0475 35.28C41.3381 36.9988 39.3047 38.3614 37.0651 39.2891C34.8255 40.2167 32.4241 40.6909 29.9999 40.6842ZM29.9999 5.21999C20.6195 5.21999 12.9875 12.8514 12.9875 22.2324C12.9875 31.6134 20.6195 39.2442 29.9999 39.2442C39.3803 39.2442 47.0123 31.6128 47.0123 22.2324C47.0123 12.852 39.3803 5.21999 29.9999 5.21999Z" fill="#163020"/>
<path d="M44.5999 24.9372C44.3174 24.9367 44.041 24.8548 43.8039 24.7013C43.5668 24.5477 43.379 24.329 43.2631 24.0714L43.2601 24.06L42.8101 23.052C42.8101 23.0484 42.8071 23.0442 42.8053 23.0406L41.7691 21.9156H41.7619H41.7529L41.2849 22.0596H41.2765C41.2738 22.063 41.272 22.0669 41.2711 22.071C41.2713 22.3344 41.2011 22.5931 41.0676 22.8201C40.9341 23.0472 40.7423 23.2343 40.5121 23.3622C40.3796 23.438 40.2264 23.4698 40.0747 23.4528L37.0087 23.1078C36.7492 23.1893 36.472 23.1962 36.2087 23.1277C35.9455 23.0591 35.7069 22.9179 35.5201 22.7202C35.3933 22.583 35.3249 22.4018 35.3293 22.215L35.4679 16.2972L33.4765 13.8672L33.4615 13.8594H33.4555L30.4867 12.339C30.4743 12.334 30.4614 12.3304 30.4483 12.3282L25.7347 14.0484L25.7101 14.0646L25.0123 14.5446L24.9871 14.5614C24.6702 14.765 24.2877 14.8403 23.9173 14.7721C23.5468 14.7039 23.2163 14.4973 22.9927 14.1942L22.2727 13.2066C22.1362 13.0199 22.046 12.8035 22.0095 12.5752C21.973 12.3469 21.9912 12.1132 22.0627 11.8932L22.9627 9.10503V9.09843C23.0319 8.88621 23.1492 8.6928 23.3052 8.53319C23.4613 8.37357 23.6521 8.25205 23.8627 8.17803L28.0885 6.68523H28.0981L29.9167 4.09323C30.0263 3.93689 30.1936 3.8305 30.3816 3.79747C30.5697 3.76445 30.7632 3.80749 30.9196 3.91713C31.0759 4.02677 31.1823 4.19403 31.2153 4.38211C31.2483 4.57019 31.2053 4.76369 31.0957 4.92003L29.2927 7.49043C29.1221 7.76971 28.8512 7.97321 28.5355 8.05923L24.3385 9.54123C24.3352 9.54626 24.3325 9.55171 24.3307 9.55743L23.4307 12.3426C23.4309 12.3446 23.4309 12.3466 23.4307 12.3486C23.4307 12.3486 23.4307 12.3552 23.4379 12.3642L24.1579 13.3542C24.1657 13.3594 24.1749 13.3621 24.1843 13.3621C24.1937 13.3621 24.2028 13.3594 24.2107 13.3542L24.8941 12.8808L24.9043 12.8736C25.0036 12.8038 25.1115 12.7469 25.2253 12.7044L29.9455 10.9812C30.1307 10.9138 30.3275 10.8839 30.5245 10.8932C30.7214 10.9025 30.9145 10.9507 31.0927 11.0352L31.1227 11.0496L34.1083 12.5784C34.2971 12.6695 34.4632 12.8018 34.5943 12.9654L36.7063 15.5454C36.7389 15.5826 36.7681 15.6228 36.7933 15.6654C36.8754 15.7887 36.9173 15.9344 36.9133 16.0824L36.7801 21.6678C36.8497 21.6552 36.9209 21.6528 36.9913 21.6606L39.8305 21.9804C39.8506 21.6852 39.9599 21.4031 40.144 21.1714C40.3281 20.9398 40.5782 20.7695 40.8613 20.6832L41.3191 20.5428C41.5823 20.4589 41.8641 20.4517 42.1313 20.522C42.3985 20.5924 42.6402 20.7374 42.8281 20.94L43.8601 22.0638C43.9843 22.1882 44.0797 22.3384 44.1397 22.5036L44.2597 22.7748L45.2401 19.335C45.2829 19.1844 45.3736 19.0518 45.4986 18.9574C45.6235 18.863 45.7759 18.8119 45.9325 18.8118H45.9415L45.9493 18.8046L46.8493 17.9766C46.9902 17.8497 47.1755 17.7834 47.3649 17.7923C47.5544 17.8011 47.7327 17.8844 47.8611 18.024C47.9895 18.1635 48.0577 18.3481 48.0508 18.5377C48.0439 18.7272 47.9625 18.9064 47.8243 19.0362L46.9333 19.8558C46.8105 19.9751 46.6667 20.0705 46.5091 20.1372L45.2923 24.414C45.2495 24.5647 45.1587 24.6973 45.0338 24.7917C44.9088 24.8861 44.7565 24.9372 44.5999 24.9372Z" fill="#163020"/>
<path d="M14.0862 21.8718H12.3042C12.1133 21.8718 11.9301 21.796 11.7951 21.661C11.6601 21.5259 11.5842 21.3428 11.5842 21.1518C11.5842 20.9609 11.6601 20.7778 11.7951 20.6427C11.9301 20.5077 12.1133 20.4318 12.3042 20.4318H14.0862C14.1729 20.4324 14.2566 20.4001 14.3204 20.3414C14.3842 20.2827 14.4234 20.2021 14.43 20.1157C14.43 20.1073 14.43 20.0988 14.43 20.0898L14.4648 19.7424C14.4729 19.6402 14.5023 19.5409 14.5513 19.4508C14.6003 19.3608 14.6678 19.2821 14.7492 19.2198C15.1092 18.9426 15.4182 19.0243 17.1276 19.4784L17.6106 19.6056C17.729 19.1468 18.0212 18.752 18.4254 18.5046L18.453 18.4885L18.5634 18.4285L16.92 15.63C16.8592 15.5266 16.8251 15.4095 16.821 15.2895C16.817 15.1695 16.8429 15.0504 16.8966 14.943C16.9163 14.9042 16.9384 14.8665 16.9626 14.8302L18.9162 11.013L18.9204 11.004C18.9453 10.955 18.9582 10.9009 18.9582 10.8459C18.9582 10.791 18.9453 10.7369 18.9204 10.6878L18.0036 8.94005C17.9176 8.77134 17.9016 8.57553 17.9589 8.39506C18.0162 8.21458 18.1424 8.06396 18.31 7.97582C18.4776 7.88767 18.6732 7.86911 18.8543 7.92414C19.0355 7.97918 19.1878 8.10338 19.278 8.26985L20.196 10.0164C20.3287 10.2724 20.3979 10.5565 20.3979 10.8447C20.3979 11.133 20.3287 11.4171 20.196 11.673L18.366 15.249L20.106 18.2136C20.1733 18.3267 20.2084 18.4561 20.2073 18.5877C20.2062 18.7193 20.1691 18.8481 20.1 18.96C19.9505 19.1982 19.7491 19.3994 19.5108 19.5486L19.479 19.5678L19.1718 19.74C19.0398 19.8264 18.9396 19.9999 19.0254 20.1853C19.0273 20.1887 19.0289 20.1923 19.0302 20.196C19.0859 20.3217 19.105 20.4605 19.0855 20.5965C19.066 20.7325 19.0086 20.8603 18.9198 20.9653C18.6072 21.3319 18.1884 21.2322 17.745 21.1266C17.4738 21.0618 17.127 20.97 16.7598 20.8722C16.4844 20.799 16.107 20.6988 15.7908 20.6214C15.6764 20.984 15.4495 21.3006 15.143 21.5254C14.8365 21.7503 14.4664 21.8716 14.0862 21.8718Z" fill="#163020"/>
<path d="M18.8215 36.7236C18.7799 36.7236 18.7383 36.7199 18.6973 36.7128C18.5092 36.68 18.3419 36.5739 18.2321 36.4177C18.1222 36.2615 18.079 36.0681 18.1117 35.88L18.6877 32.568C18.7201 32.3701 18.7962 32.1819 18.9103 32.017C19.0245 31.8521 19.1739 31.7147 19.3477 31.6146L20.4229 31.0002L19.8925 29.58C19.8859 29.562 19.8799 29.544 19.8745 29.5254C19.7971 29.2808 19.7892 29.0195 19.8517 28.7706L20.1361 27.582L17.9761 26.9466C17.7592 26.8917 17.561 26.7794 17.4025 26.6214L14.8417 24.1674L12.6601 25.026C12.4828 25.0947 12.2856 25.0905 12.1114 25.0143C11.9372 24.9381 11.8002 24.7961 11.7303 24.6193C11.6604 24.4425 11.6633 24.2452 11.7384 24.0705C11.8134 23.8958 11.9545 23.7579 12.1309 23.6868L14.3629 22.8048H14.3689C14.6132 22.7105 14.8794 22.6887 15.1358 22.7419C15.3922 22.7951 15.6277 22.9211 15.8143 23.1048L18.3805 25.5648L20.6227 26.2248C20.9596 26.3205 21.2456 26.5442 21.4196 26.8481C21.5936 27.152 21.6418 27.5119 21.5539 27.8508L21.2539 29.1054C21.2539 29.1054 21.2539 29.1054 21.2539 29.109L21.7999 30.5712C21.909 30.8711 21.9096 31.1997 21.8015 31.5C21.6934 31.8003 21.4835 32.0531 21.2083 32.2146L21.1951 32.2224L20.1001 32.8428L19.5289 36.1272C19.4999 36.2939 19.413 36.445 19.2837 36.5541C19.1543 36.6632 18.9907 36.7232 18.8215 36.7236Z" fill="#163020"/>
<path d="M30.507 32.88C30.2102 32.8804 29.9169 32.8165 29.6472 32.6928C29.3941 32.5777 29.1674 32.4117 28.9811 32.2053C28.7948 31.9989 28.6529 31.7564 28.5642 31.4928C28.3368 30.8106 26.7348 29.2536 25.8738 28.4172C25.5456 28.0986 25.2624 27.8232 25.047 27.5988C24.387 26.9226 24.105 26.169 24.2148 25.359C24.3024 24.711 24.6294 24.159 24.8682 23.754C24.9594 23.5992 25.0842 23.388 25.1034 23.3112C25.1856 22.9416 25.089 22.689 24.954 22.3398C24.7926 21.9198 24.5718 21.3456 24.831 20.6286L25.6062 18.48L25.6092 18.4728C25.8744 17.7636 26.6736 17.304 27.0054 17.139C27.3276 16.9788 28.1562 16.6248 28.8762 16.7994L28.8894 16.803L31.44 17.475C31.7602 17.5593 32.0548 17.7211 32.2977 17.9462C32.5405 18.1713 32.7242 18.4527 32.8326 18.7656L33.9852 21.9276C34.1232 22.1076 34.6452 22.7028 35.3004 23.352C36.1782 24.2232 36.663 24.5706 36.825 24.6486C36.93 24.6522 37.0488 24.6528 37.173 24.654C37.8978 24.6588 38.7996 24.6648 39.4224 25.2168L41.88 27.36C42.2489 27.6862 42.4878 28.1345 42.5528 28.6227C42.6179 29.1108 42.5046 29.606 42.234 30.0174L42.1572 30.1326C41.793 30.6816 41.2644 31.4784 40.224 31.4784C40.0716 31.4779 39.9196 31.4622 39.7704 31.4316L39.7062 31.419C39.1236 31.299 38.7378 31.2228 38.5662 31.257C38.4222 31.2852 38.1858 31.4688 37.794 31.773C37.68 31.8618 37.554 31.9602 37.4106 32.0688L37.4058 32.0724C36.4524 32.7876 35.3952 32.3802 34.6224 32.0832C34.1634 31.9032 33.6888 31.7232 33.4284 31.8312L31.2846 32.724L31.2756 32.7276C31.0314 32.8269 30.7705 32.8786 30.507 32.88ZM26.5092 23.622C26.4444 23.9148 26.2812 24.1914 26.1078 24.4848C25.6188 25.3116 25.356 25.8558 26.0778 26.5914L26.0832 26.5974C26.2818 26.8038 26.5578 27.072 26.8776 27.3828C28.3626 28.8258 29.6172 30.0966 29.9286 31.0314C29.9553 31.1085 29.9974 31.1793 30.0524 31.2396C30.1074 31.2998 30.174 31.3482 30.2484 31.3818C30.3245 31.4171 30.4071 31.4364 30.491 31.4385C30.5749 31.4407 30.6583 31.4257 30.7362 31.3944L32.8764 30.504C33.669 30.1752 34.4508 30.4758 35.1402 30.744C35.877 31.0278 36.2556 31.1382 36.54 30.924C36.678 30.8184 36.8004 30.7236 36.9108 30.6378C38.1048 29.7102 38.3064 29.6688 39.99 30.009L40.05 30.0216C40.3962 30.0906 40.515 30.0006 40.9542 29.3382L41.0334 29.2182C41.1116 29.0975 41.1438 28.9527 41.1242 28.8102C41.1046 28.6677 41.0345 28.5369 40.9266 28.4418L38.4708 26.2968L38.466 26.2926C38.2482 26.0988 37.5942 26.0946 37.161 26.0916C36.9966 26.0916 36.8412 26.0916 36.6912 26.0814C36.4404 26.0694 35.9742 26.046 34.299 24.3864C33.939 24.0306 33.5724 23.6454 33.264 23.301C32.7408 22.716 32.691 22.5918 32.6532 22.4808L31.4754 19.2498C31.4735 19.2451 31.4719 19.2403 31.4706 19.2354C31.4406 19.1449 31.3882 19.0634 31.3182 18.9987C31.2482 18.934 31.163 18.888 31.0704 18.8652L28.53 18.198C28.152 18.1122 27.09 18.6378 26.9568 18.978L26.184 21.1164C26.1132 21.312 26.1534 21.4488 26.2968 21.8208C26.46 22.2456 26.6862 22.8276 26.5092 23.622Z" fill="#163020"/>
</svg>
