<svg width="106" height="31" viewBox="0 0 106 31" fill="none" xmlns="http://www.w3.org/2000/svg">
<path d="M25.6503 15.1327C25.6503 21.313 22.6163 26.7442 17.9343 30.1152C25.2757 29.0664 30.9316 22.7363 30.9316 15.1327C30.9316 7.49159 25.2757 1.19892 17.9343 0.150146C22.5789 3.48376 25.6503 8.95239 25.6503 15.1327Z" fill="#10100F"/>
<path d="M11.2671 29.5155C12.3159 29.8526 13.3647 30.0774 14.4884 30.1523C18.5711 26.4066 21.1182 21.0504 21.1182 15.0948C21.1182 9.13926 18.5337 3.78301 14.4884 0.0748288C13.3647 0.187198 12.2785 0.411936 11.2671 0.711586C14.7131 4.49468 16.8107 9.55128 16.8107 15.1323C16.8107 20.7133 14.7131 25.7324 11.2671 29.5155Z" fill="#10100F"/>
<path d="M0.704331 15.1325C0.704331 20.3389 3.32627 24.9461 7.37156 27.6429C10.7052 24.4966 12.8027 20.0393 12.8027 15.1325C12.8027 10.1883 10.7052 5.73095 7.37156 2.62207C3.32627 5.31893 0.704331 9.8886 0.704331 15.1325Z" fill="#10100F"/>
<g clip-path="url(#clip0_95_9747)">
<path d="M47.5149 10.3194C44.7974 10.3194 43.2419 12.2872 43.2419 15.2483C43.2419 18.303 45.0036 19.971 47.5336 19.971C49.9137 19.971 51.3567 18.6591 51.3567 16.4664V16.4102H47.215V14.2925H53.5869V21.995H51.5629L51.413 20.4208C50.6633 21.4702 49.1078 22.2011 47.2525 22.2011C43.4106 22.2011 40.7307 19.4087 40.7307 15.192C40.7307 11.0316 43.4481 8.0705 47.5711 8.0705C50.7008 8.0705 53.1184 9.88837 53.512 12.6808H50.9819C50.5509 11.069 49.1641 10.3194 47.5149 10.3194ZM61.6498 12.6995V14.8172H60.8064C59.1572 14.8172 58.1265 15.698 58.1265 17.4972V21.995H55.8401V12.7557H57.9953L58.1265 14.1051C58.52 13.1868 59.4008 12.5683 60.6377 12.5683C60.9563 12.5683 61.2749 12.6058 61.6498 12.6995ZM65.5862 22.2386C63.6184 22.2386 62.419 21.0954 62.419 19.3525C62.419 17.6471 63.6559 16.5789 65.8486 16.4102L68.6222 16.2041V15.9979C68.6222 14.7423 67.8726 14.2363 66.7107 14.2363C65.3613 14.2363 64.6117 14.7985 64.6117 15.773H62.6626C62.6626 13.7677 64.3118 12.4559 66.8231 12.4559C69.3157 12.4559 70.8524 13.8052 70.8524 16.3727V21.995H68.8471L68.6785 20.6269C68.2849 21.5827 67.0293 22.2386 65.5862 22.2386ZM66.3359 20.5145C67.7414 20.5145 68.641 19.6711 68.641 18.2468V17.7595L66.7107 17.9095C65.2864 18.0407 64.7429 18.5092 64.7429 19.2588C64.7429 20.1022 65.3051 20.5145 66.3359 20.5145ZM73.0985 26.2867V12.737H75.2163L75.3662 14.1426C75.9284 13.0743 77.1466 12.4559 78.5521 12.4559C81.1571 12.4559 82.8813 14.3487 82.8813 17.2535C82.8813 20.1396 81.3071 22.2386 78.5521 22.2386C77.1653 22.2386 75.9659 21.6951 75.3849 20.7581V26.2867H73.0985ZM75.4037 17.366C75.4037 19.0339 76.4344 20.1771 78.0087 20.1771C79.6204 20.1771 80.5762 19.0152 80.5762 17.366C80.5762 15.7168 79.6204 14.5361 78.0087 14.5361C76.4344 14.5361 75.4037 15.698 75.4037 17.366ZM86.9882 21.995H84.7018V8.05176H87.0069V13.9364C87.5879 13.0368 88.6749 12.4559 90.0055 12.4559C92.2919 12.4559 93.4913 13.8989 93.4913 16.2978V21.995H91.2049V16.8412C91.2049 15.2857 90.4365 14.5361 89.2746 14.5361C87.8315 14.5361 86.9882 15.5481 86.9882 16.9349V21.995ZM95.1942 17.3472C95.1942 14.4611 97.2745 12.4746 100.142 12.4746C103.009 12.4746 105.089 14.4611 105.089 17.3472C105.089 20.2333 103.009 22.2199 100.142 22.2199C97.2745 22.2199 95.1942 20.2333 95.1942 17.3472ZM97.4806 17.3472C97.4806 19.0339 98.5676 20.1771 100.142 20.1771C101.716 20.1771 102.803 19.0339 102.803 17.3472C102.803 15.6606 101.716 14.5174 100.142 14.5174C98.5676 14.5174 97.4806 15.6606 97.4806 17.3472Z" fill="#10100F"/>
</g>
<defs>
<clipPath id="clip0_95_9747">
<rect width="65.2909" height="30.2273" fill="white" transform="translate(40)"/>
</clipPath>
</defs>
</svg>
