<svg width="117" height="31" viewBox="0 0 117 31" fill="none" xmlns="http://www.w3.org/2000/svg">
<path fill-rule="evenodd" clip-rule="evenodd" d="M22.1745 30.2273L30.2273 0L0 8.05282L6.76956 14.8224L23.8085 6.41961L15.289 23.3419L22.1745 30.2273Z" fill="#10100F"/>
<path opacity="0.5" fill-rule="evenodd" clip-rule="evenodd" d="M23.8086 6.41956L15.2889 23.3422H6.76929V14.8225L23.8086 6.41956Z" fill="#10100F"/>
<g clip-path="url(#clip0_95_9733)">
<path d="M46.1389 22.2271C45.1974 22.2271 44.3204 22.0595 43.5079 21.7242C42.7083 21.3759 42.0054 20.8988 41.3993 20.2926C40.7931 19.6864 40.3159 18.9771 39.9677 18.1646C39.6324 17.3392 39.4647 16.4493 39.4647 15.4949C39.4647 14.5534 39.6324 13.6829 39.9677 12.8833C40.3159 12.0708 40.7931 11.3614 41.3993 10.7553C42.0054 10.1491 42.7083 9.67839 43.5079 9.34307C44.3204 8.99485 45.1974 8.82074 46.1389 8.82074C47.0804 8.82074 47.9509 8.99485 48.7506 9.34307C49.5502 9.67839 50.2531 10.1491 50.8592 10.7553C51.4654 11.3614 51.9361 12.0708 52.2714 12.8833C52.6067 13.6829 52.7744 14.5534 52.7744 15.4949C52.7744 16.4493 52.6067 17.3392 52.2714 18.1646C51.9361 18.9771 51.4654 19.6864 50.8592 20.2926C50.2531 20.8988 49.5502 21.3759 48.7506 21.7242C47.9509 22.0595 47.0804 22.2271 46.1389 22.2271ZM46.1389 20.3506C46.7709 20.3506 47.3641 20.2281 47.9187 19.9831C48.4862 19.7251 48.9827 19.3769 49.4083 18.9384C49.8339 18.4999 50.1628 17.9905 50.3949 17.4101C50.6271 16.8169 50.7431 16.1785 50.7431 15.4949C50.7431 14.8243 50.6271 14.1988 50.3949 13.6184C50.1628 13.038 49.8339 12.5286 49.4083 12.0901C48.9827 11.6516 48.4926 11.3099 47.938 11.0648C47.3835 10.8198 46.7838 10.6972 46.1389 10.6972C45.4941 10.6972 44.8879 10.8198 44.3204 11.0648C43.753 11.3099 43.2564 11.6516 42.8308 12.0901C42.4181 12.5286 42.0893 13.038 41.8442 13.6184C41.6121 14.1988 41.496 14.8243 41.496 15.4949C41.496 16.1785 41.6121 16.8169 41.8442 17.4101C42.0893 17.9905 42.4181 18.4999 42.8308 18.9384C43.2564 19.3769 43.753 19.7251 44.3204 19.9831C44.8879 20.2281 45.4941 20.3506 46.1389 20.3506ZM56.8477 26.3477H54.9325V17.236C54.9325 16.2945 55.1517 15.4498 55.5902 14.7018C56.0416 13.9537 56.6478 13.3669 57.4087 12.9413C58.1696 12.5028 59.0273 12.2836 59.9816 12.2836C60.936 12.2836 61.7937 12.5093 62.5546 12.9607C63.3155 13.3992 63.9152 13.9989 64.3537 14.7598C64.7922 15.5078 65.0115 16.3332 65.0115 17.236C65.0115 18.1904 64.7987 19.048 64.3731 19.809C63.9475 20.557 63.3607 21.1502 62.6126 21.5887C61.8775 22.0143 61.0263 22.2271 60.059 22.2271C59.2981 22.2271 58.5952 22.0466 57.9504 21.6855C57.3184 21.3244 56.809 20.8536 56.4221 20.2732C56.0481 19.68 55.8611 19.0351 55.8611 18.3387L56.8477 18.8417V26.3477ZM59.9816 20.428C60.5749 20.428 61.1037 20.2861 61.568 20.0024C62.0452 19.7058 62.4192 19.3189 62.69 18.8417C62.9608 18.3516 63.0963 17.8228 63.0963 17.2554C63.0963 16.675 62.9608 16.1462 62.69 15.669C62.4192 15.1918 62.0452 14.8114 61.568 14.5276C61.1037 14.2439 60.5749 14.102 59.9816 14.102C59.3884 14.102 58.8532 14.2439 58.376 14.5276C57.9117 14.8114 57.5377 15.1918 57.2539 15.669C56.9831 16.1462 56.8477 16.675 56.8477 17.2554C56.8477 17.8228 56.9831 18.3516 57.2539 18.8417C57.5377 19.3189 57.9117 19.7058 58.376 20.0024C58.8532 20.2861 59.3884 20.428 59.9816 20.428ZM71.4886 22.2465C70.7148 22.2465 70.057 22.0917 69.5153 21.7822C68.9737 21.4727 68.561 21.0471 68.2772 20.5054C68.0064 19.9508 67.871 19.3124 67.871 18.5902V10.0588H69.7862V18.5322C69.7862 19.1512 69.9538 19.6348 70.2892 19.9831C70.6374 20.3313 71.0952 20.5054 71.6627 20.5054C71.9722 20.5054 72.2817 20.4538 72.5913 20.3506C72.9137 20.2475 73.191 20.112 73.4231 19.9444V21.7048C73.1781 21.8596 72.8814 21.9885 72.5332 22.0917C72.185 22.1949 71.8368 22.2465 71.4886 22.2465ZM73.4231 14.1794H65.9945V12.5157H73.4231V14.1794ZM76.2707 12.5157H78.1859V21.995H76.2707V12.5157ZM77.2186 10.6392C76.9994 10.6392 76.793 10.5876 76.5995 10.4844C76.4061 10.3684 76.2513 10.2136 76.1353 10.0202C76.0192 9.8267 75.9611 9.6139 75.9611 9.38176C75.9611 9.14961 76.0192 8.93681 76.1353 8.74336C76.2513 8.5499 76.4061 8.39514 76.5995 8.27907C76.793 8.16299 76.9994 8.10496 77.2186 8.10496C77.4507 8.10496 77.6571 8.16299 77.8377 8.27907C78.0311 8.39514 78.1794 8.5499 78.2826 8.74336C78.3987 8.93681 78.4567 9.14961 78.4567 9.38176C78.4567 9.6139 78.3987 9.8267 78.2826 10.0202C78.1794 10.2136 78.0311 10.3684 77.8377 10.4844C77.6571 10.5876 77.4507 10.6392 77.2186 10.6392ZM93.0678 12.2449C94.0222 12.2449 94.8218 12.4577 95.4667 12.8833C96.1244 13.3089 96.6209 13.8828 96.9563 14.605C97.3045 15.3273 97.4786 16.1269 97.4786 17.0039V21.995H95.5634V17.3134C95.5634 16.733 95.4667 16.1978 95.2732 15.7077C95.0926 15.2176 94.8025 14.8243 94.4027 14.5276C94.0157 14.231 93.5257 14.0827 92.9324 14.0827C92.3649 14.0827 91.8877 14.231 91.5008 14.5276C91.1139 14.8114 90.8237 15.1983 90.6303 15.6884C90.4368 16.1656 90.3401 16.6943 90.3401 17.2747V21.995H88.4249V17.2747C88.4249 16.6943 88.3282 16.1656 88.1347 15.6884C87.9542 15.1983 87.664 14.8114 87.2642 14.5276C86.8773 14.231 86.3872 14.0827 85.7939 14.0827C85.2007 14.0827 84.7106 14.231 84.3237 14.5276C83.9497 14.8243 83.6724 15.2176 83.4918 15.7077C83.3113 16.1978 83.221 16.733 83.221 17.3134V21.995H81.3058V17.0232C81.3058 16.1333 81.467 15.3273 81.7894 14.605C82.1247 13.8828 82.6148 13.3089 83.2597 12.8833C83.9174 12.4577 84.717 12.2449 85.6585 12.2449C86.4581 12.2449 87.1481 12.3996 87.7285 12.7092C88.3217 13.0187 88.7796 13.4443 89.102 13.986C89.4373 14.5276 89.6114 15.1532 89.6243 15.8625H89.1987C89.2245 15.1532 89.3986 14.5276 89.7211 13.986C90.0564 13.4443 90.5078 13.0187 91.0752 12.7092C91.6556 12.3996 92.3198 12.2449 93.0678 12.2449ZM104.376 22.2271C103.46 22.2271 102.641 22.0014 101.919 21.55C101.21 21.0987 100.649 20.4989 100.236 19.7509C99.8234 18.99 99.617 18.1517 99.617 17.236C99.617 16.3332 99.8363 15.5078 100.275 14.7598C100.726 13.9989 101.332 13.3992 102.093 12.9607C102.854 12.5093 103.712 12.2836 104.666 12.2836C105.621 12.2836 106.478 12.5028 107.239 12.9413C108 13.3669 108.6 13.9537 109.038 14.7018C109.49 15.4498 109.715 16.2945 109.715 17.236V21.995H107.897V18.4548L108.555 17.9518C108.555 18.7514 108.374 19.4736 108.013 20.1185C107.665 20.7633 107.175 21.2792 106.543 21.6661C105.924 22.0401 105.201 22.2271 104.376 22.2271ZM104.666 20.4087C105.259 20.4087 105.795 20.2668 106.272 19.9831C106.749 19.6993 107.123 19.3189 107.394 18.8417C107.665 18.3516 107.8 17.8228 107.8 17.2554C107.8 16.675 107.665 16.1462 107.394 15.669C107.123 15.1918 106.749 14.8114 106.272 14.5276C105.795 14.231 105.259 14.0827 104.666 14.0827C104.073 14.0827 103.538 14.231 103.061 14.5276C102.596 14.8114 102.222 15.1918 101.938 15.669C101.668 16.1462 101.532 16.675 101.532 17.2554C101.532 17.8228 101.668 18.3516 101.938 18.8417C102.222 19.3189 102.596 19.6993 103.061 19.9831C103.538 20.2668 104.073 20.4087 104.666 20.4087ZM112.846 8.16299H114.761V21.995H112.846V8.16299Z" fill="#10100F"/>
</g>
<defs>
<clipPath id="clip0_95_9733">
<rect width="76.7773" height="30.2273" fill="white" transform="translate(39.2954)"/>
</clipPath>
</defs>
</svg>
