<svg width="29" height="28" viewBox="0 0 29 28" fill="none" xmlns="http://www.w3.org/2000/svg">
<path d="M14.5371 3.67725C8.79489 3.67725 4.13977 8.25774 5.29518 13.9834C6.06284 17.7874 9.89005 21.3388 12.3724 23.294C13.1871 23.9357 13.5944 24.2565 14.2267 24.3414C14.4018 24.3649 14.6724 24.3649 14.8475 24.3414C15.4797 24.2566 15.887 23.9357 16.7017 23.2941C19.1842 21.3388 23.0115 17.7875 23.7789 13.9834C24.934 8.25774 20.2792 3.67725 14.5371 3.67725Z" stroke="#97ED63" stroke-width="1.75" stroke-linejoin="round"/>
<path d="M18.0026 13.01C18.0026 14.9073 16.451 16.4454 14.5369 16.4454C12.6229 16.4454 11.0712 14.9073 11.0712 13.01C11.0712 11.1127 12.6229 9.57463 14.5369 9.57463C16.451 9.57463 18.0026 11.1127 18.0026 13.01Z" stroke="#97ED63" stroke-width="1.75" stroke-linejoin="round"/>
</svg>
