<svg width="29" height="29" viewBox="0 0 29 29" fill="none" xmlns="http://www.w3.org/2000/svg">
<path d="M4.17407 14.2202C4.17407 11.5022 4.17407 10.1432 4.61811 9.07123C5.21016 7.6419 6.34576 6.5063 7.77509 5.91425C8.84708 5.47021 10.2061 5.47021 12.9241 5.47021H16.4241C19.1421 5.47021 20.5011 5.47021 21.5731 5.91425C23.0024 6.5063 24.138 7.6419 24.73 9.07123C25.1741 10.1432 25.1741 11.5022 25.1741 14.2202V14.2202C25.1741 16.9382 25.1741 18.2972 24.73 19.3692C24.138 20.7985 23.0024 21.9341 21.5731 22.5262C20.5011 22.9702 19.1421 22.9702 16.4241 22.9702H12.9241C10.2061 22.9702 8.84708 22.9702 7.77509 22.5262C6.34576 21.9341 5.21016 20.7985 4.61811 19.3692C4.17407 18.2972 4.17407 16.9382 4.17407 14.2202V14.2202Z" stroke="#97ED63" stroke-width="1.75" stroke-linejoin="round"/>
<path d="M4.17407 9.55371L8.22807 12.7067C10.9693 14.8386 12.3399 15.9046 13.9056 16.1128C14.416 16.1807 14.9331 16.1806 15.4435 16.1128C17.0091 15.9045 18.3797 14.8385 21.1208 12.7064L25.1741 9.55371" stroke="#97ED63" stroke-width="1.75" stroke-linejoin="round"/>
</svg>
