<svg width="14" height="15" viewBox="0 0 14 15" fill="none" xmlns="http://www.w3.org/2000/svg">
<path d="M13.4965 14.2499L13.4998 14.2493V9.29819C13.4998 6.87607 12.9784 5.01025 10.1468 5.01025C8.78553 5.01025 7.87203 5.75725 7.49909 6.46544H7.45971V5.23638H4.7749V14.2493H7.57053V9.78644C7.57053 8.61138 7.79328 7.47513 9.24846 7.47513C10.6823 7.47513 10.7037 8.81613 10.7037 9.86182V14.2499H13.4965Z" fill="#090A13"/>
<path d="M0.2229 5.2373H3.0219V14.2502H0.2229V5.2373Z" fill="#090A13"/>
<path d="M1.62112 0.75C0.726188 0.75 0 1.47619 0 2.37112C0 3.26606 0.726188 4.00744 1.62112 4.00744C2.51606 4.00744 3.24225 3.26606 3.24225 2.37112C3.24169 1.47619 2.5155 0.75 1.62112 0.75Z" fill="#090A13"/>
</svg>
