<svg width="24" height="24" viewBox="0 0 24 24" fill="none" xmlns="http://www.w3.org/2000/svg">
<path d="M2.8388 2.80527L2.22293 2.18372L2.8388 2.80527ZM8.55692 2.80527L9.17279 2.18372L8.55692 2.80527ZM8.55692 8.47113L7.94105 7.84958L8.55692 8.47113ZM15.5004 15.3511L14.8845 14.7295L15.5004 15.3511ZM21.2185 21.017L20.6026 20.3954L21.2185 21.017ZM6.92317 16.9699L6.3073 17.5915L6.92317 16.9699ZM1.67595 6.05119L2.55094 6.04618C2.55077 6.01762 2.54921 5.9891 2.54626 5.9607L1.67595 6.05119ZM17.9426 22.1692L18.0315 21.2987C18.0036 21.2959 17.9756 21.2944 17.9475 21.2942L17.9426 22.1692ZM6.3397 9.59406L6.20276 8.72985C5.92202 8.77433 5.68039 8.95241 5.55478 9.20739C5.42917 9.46236 5.43524 9.76247 5.57105 10.0122L6.3397 9.59406ZM14.3671 17.5481L13.9549 18.3199C14.2042 18.453 14.5024 18.4575 14.7556 18.332C15.0088 18.2065 15.1859 17.9665 15.2309 17.6875L14.3671 17.5481ZM3.45467 3.42683C4.69264 2.20017 6.70308 2.20017 7.94105 3.42683L9.17279 2.18372C7.25273 0.281207 4.14299 0.281207 2.22293 2.18372L3.45467 3.42683ZM7.94105 3.42683C9.17456 4.64906 9.17456 6.62734 7.94105 7.84958L9.17279 9.09268C11.0973 7.18575 11.0973 4.09065 9.17279 2.18372L7.94105 3.42683ZM16.1162 15.9727C17.3542 14.746 19.3646 14.746 20.6026 15.9727L21.8343 14.7295C19.9143 12.827 16.8045 12.827 14.8845 14.7295L16.1162 15.9727ZM20.6026 15.9727C21.8361 17.1949 21.8361 19.1732 20.6026 20.3954L21.8343 21.6385C23.7589 19.7316 23.7589 16.6365 21.8343 14.7295L20.6026 15.9727ZM7.53905 16.3484C4.27605 13.1152 2.56918 9.23271 2.55094 6.04618L0.800964 6.0562C0.822456 9.80966 2.79674 14.113 6.3073 17.5915L7.53905 16.3484ZM2.54626 5.9607C2.45221 5.05621 2.75427 4.12082 3.45467 3.42683L2.22293 2.18372C1.13201 3.26467 0.658837 4.72978 0.805642 6.14168L2.54626 5.9607ZM20.6026 20.3954C19.9016 21.09 18.9526 21.3927 18.0315 21.2987L17.8538 23.0397C19.2704 23.1843 20.744 22.7189 21.8343 21.6385L20.6026 20.3954ZM17.9475 21.2942C14.7234 21.2761 10.8016 19.5811 7.53905 16.3484L6.3073 17.5915C9.81833 21.0704 14.1578 23.0229 17.9377 23.0442L17.9475 21.2942ZM7.94105 7.84958C7.4505 8.33565 6.84029 8.62882 6.20276 8.72985L6.47665 10.4583C7.46259 10.302 8.41192 9.8466 9.17279 9.09268L7.94105 7.84958ZM10.3981 13.5154C9.02656 12.1564 7.92432 10.6761 7.10835 9.17597L5.57105 10.0122C6.47118 11.667 7.67773 13.2835 9.16636 14.7585L10.3981 13.5154ZM15.2309 17.6875C15.332 17.0608 15.6259 16.4585 16.1162 15.9727L14.8845 14.7295C14.1234 15.4836 13.6617 16.4267 13.5032 17.4086L15.2309 17.6875ZM14.7793 16.7762C13.2641 15.9671 11.7696 14.8744 10.3981 13.5154L9.16636 14.7585C10.655 16.2336 12.286 17.4286 13.9549 18.3199L14.7793 16.7762Z" fill="#97ED63"/>
</svg>
