<svg width="117" height="31" viewBox="0 0 117 31" fill="none" xmlns="http://www.w3.org/2000/svg">
<path d="M5.35845 21.7754C5.35845 23.1903 4.20081 24.3479 2.78591 24.3479C1.37102 24.3479 0.213379 23.1903 0.213379 21.7754L0.213378 2.99587C0.213378 1.58098 1.37102 0.42334 2.78591 0.42334C4.20081 0.42334 5.35845 1.58098 5.35845 2.99587L5.35845 21.7754Z" fill="#10100F"/>
<path d="M13.7195 27.8821C13.7195 29.2969 12.5619 30.4546 11.147 30.4546C9.7321 30.4546 8.57446 29.2969 8.57446 27.8821L8.57446 9.10256C8.57446 7.68767 9.7321 6.53003 11.147 6.53003C12.5619 6.53003 13.7195 7.68767 13.7195 9.10256L13.7195 27.8821Z" fill="#10100F"/>
<path d="M22.0801 21.7754C22.0801 23.1903 20.9225 24.3479 19.5076 24.3479C18.0927 24.3479 16.9351 23.1903 16.9351 21.7754L16.9351 2.99587C16.9351 1.58098 18.0927 0.42334 19.5076 0.42334C20.9225 0.42334 22.0801 1.58098 22.0801 2.99587L22.0801 21.7754Z" fill="#10100F"/>
<path d="M30.4405 27.8821C30.4405 29.2969 29.2828 30.4546 27.8679 30.4546C26.4531 30.4546 25.2954 29.297 25.2954 27.8821L25.2954 9.70711C25.2954 8.29221 26.453 7.13457 27.8679 7.13457C29.2828 7.13457 30.4405 8.29221 30.4405 9.70711L30.4405 27.8821Z" fill="#10100F"/>
<g clip-path="url(#clip0_95_9769)">
<path d="M48.7536 18.896V21.5294H39.6365V7.56442H48.7536V10.1978H42.7287V13.2901H47.9556V15.8038H42.7287V18.896H48.7536ZM54.0656 21.5294H51.0532V11.1355H53.5868L53.8262 12.5519C54.8038 11.4946 55.9609 10.9559 57.3773 10.9559C58.6541 10.9559 59.512 11.335 60.0506 12.0532C60.2102 12.2527 60.3299 12.4522 60.4297 12.6916C61.4471 11.5145 62.6042 10.9559 64.0406 10.9559C65.3573 10.9559 66.2351 11.335 66.7738 12.0532C67.3324 12.7913 67.492 13.6492 67.492 15.7639V21.5294H64.4995V16.4422C64.4995 15.2452 64.4197 14.7265 64.1005 14.3075C63.7613 13.9085 63.3025 13.7489 62.5843 13.7489C61.9259 13.7489 61.3474 13.9484 60.7489 14.4472C60.7888 14.8262 60.7888 15.2452 60.7888 15.7639V21.5294H57.7763V16.4422C57.7763 15.2452 57.7165 14.7265 57.3773 14.3075C57.0581 13.9085 56.5993 13.7489 55.921 13.7489C55.1828 13.7489 54.5045 14.0083 54.0656 14.4671V21.5294ZM74.8736 21.689C74.0956 21.689 73.2577 21.5494 72.4597 21.2501L70.1654 21.5294V6.36742H73.1779V12.4921C73.916 11.4746 74.9135 10.936 76.2701 10.936C78.5843 10.936 80.1404 12.6716 80.1404 15.9235C80.1404 19.6342 78.0257 21.689 74.8736 21.689ZM73.1779 14.9659V18.9958C73.6367 19.1953 74.0756 19.2751 74.5345 19.2751C75.9908 19.2751 77.0083 18.3175 77.0083 16.2227C77.0083 14.4671 76.2502 13.6093 75.1529 13.6093C74.2751 13.6093 73.6367 14.0881 73.1779 14.9659ZM85.0621 21.5294H82.0497V6.36742H85.0621V21.5294ZM92.6662 21.689C88.8757 21.689 86.9805 19.9334 86.9805 16.3025C86.9805 12.8312 89.3346 10.936 92.0278 10.936C94.8807 10.936 96.2572 12.6517 96.2572 15.6442C96.2572 16.2028 96.2173 16.7015 96.1774 17.2003H90.0528C90.352 18.7564 91.4094 19.295 93.3445 19.295C94.1425 19.295 94.9605 19.2152 95.6587 19.1155L95.5191 21.4895C94.8009 21.6092 93.8233 21.689 92.6662 21.689ZM91.948 13.1704C90.9106 13.1704 90.1525 13.9085 89.9929 15.5644L93.4044 15.3848C93.4044 13.8686 92.9455 13.1704 91.948 13.1704ZM101.291 21.5294H98.2785V11.1355H100.812L101.052 12.5519C102.029 11.4946 103.186 10.9559 104.603 10.9559C105.879 10.9559 106.737 11.335 107.276 12.0532C107.436 12.2527 107.555 12.4522 107.655 12.6916C108.672 11.5145 109.83 10.9559 111.266 10.9559C112.583 10.9559 113.461 11.335 113.999 12.0532C114.558 12.7913 114.717 13.6492 114.717 15.7639V21.5294H111.725V16.4422C111.725 15.2452 111.645 14.7265 111.326 14.3075C110.987 13.9085 110.528 13.7489 109.81 13.7489C109.151 13.7489 108.573 13.9484 107.974 14.4472C108.014 14.8262 108.014 15.2452 108.014 15.7639V21.5294H105.002V16.4422C105.002 15.2452 104.942 14.7265 104.603 14.3075C104.283 13.9085 103.825 13.7489 103.146 13.7489C102.408 13.7489 101.73 14.0083 101.291 14.4671V21.5294Z" fill="#10100F"/>
</g>
<defs>
<clipPath id="clip0_95_9769">
<rect width="76.7773" height="30.2273" fill="white" transform="translate(39.509 0.227295)"/>
</clipPath>
</defs>
</svg>
