<svg width="143" height="31" viewBox="0 0 143 31" fill="none" xmlns="http://www.w3.org/2000/svg">
<path fill-rule="evenodd" clip-rule="evenodd" d="M9.24105 19.1194V11.5626V4.00574L2.70435 7.78415V15.341V22.8978L9.24105 26.6762L15.7674 30.4546L22.3041 26.6762L15.7674 22.8978L9.24105 19.1194Z" fill="#10100F"/>
<path fill-rule="evenodd" clip-rule="evenodd" d="M15.7676 7.78411V15.3409L22.3043 19.1193L28.8306 22.8977V15.3409L22.3043 11.5625V4.0057L15.7676 0.227295V7.78411Z" fill="#10100F"/>
<g clip-path="url(#clip0_95_9777)">
<path d="M43.0821 20.8294H56.5937V22.7338H40.8695V10.3648H43.0821V20.8294ZM57.8815 18.1815C57.8815 14.8807 60.3481 13.4117 65.6257 13.4117C70.9216 13.4117 73.37 14.8807 73.37 18.1815C73.37 21.4824 70.9216 22.9514 65.6257 22.9514C60.3481 22.9514 57.8815 21.4824 57.8815 18.1815ZM59.9491 18.1815C59.9491 20.3216 61.4 21.174 65.6257 21.174C69.8515 21.174 71.3024 20.3216 71.3024 18.1815C71.3024 16.0596 69.8515 15.189 65.6257 15.189C61.4 15.189 59.9491 16.0596 59.9491 18.1815ZM89.4035 14.1009V21.3191C89.4035 24.9101 87.1727 26.2341 81.9857 26.2341C80.0451 26.2341 77.4879 25.9439 75.6199 25.3998L76.0914 23.7857C77.8688 24.2572 79.9182 24.5837 82.0946 24.5837C86.1934 24.5837 87.4811 23.6406 87.4085 21.3373L87.3722 20.902C85.4861 21.6819 83.2009 22.2804 80.825 22.2804C77.1252 22.2804 75.2209 20.9927 75.2209 17.9276C75.2209 14.5724 77.9413 13.4661 82.1127 13.4661C84.9238 13.4661 87.4992 13.7925 89.4035 14.1009ZM77.2884 17.9095C77.2884 19.8501 78.4129 20.6481 80.9882 20.6481C83.0739 20.6481 85.2321 20.2128 87.3178 19.5055V15.5518C85.7037 15.3341 83.618 15.1709 81.8406 15.1709C78.9932 15.1709 77.2884 15.8782 77.2884 17.9095ZM93.8747 9.89322V12.3416H91.8071V9.89322H93.8747ZM91.8071 22.7338V13.6474H93.8747V22.7338H91.8071ZM110.195 14.1009V25.9983H108.127V21.2466C106.205 22.1353 103.883 22.9151 101.471 22.9151C98.0254 22.9151 96.0848 21.5368 96.0848 18.2722C96.0848 14.6449 98.7871 13.4661 102.85 13.4661C105.661 13.4661 108.291 13.7744 110.195 14.1009ZM98.1523 18.1815C98.1523 20.3216 99.2768 21.174 101.852 21.174C103.938 21.174 106.042 20.5755 108.127 19.7957V15.5518C106.513 15.3341 104.409 15.1709 102.632 15.1709C99.7846 15.1709 98.1523 15.9689 98.1523 18.1815ZM112.437 18.5987V13.6474H114.505V18.3266C114.505 20.1584 115.629 21.1922 118.386 21.1922C119.909 21.1922 121.995 20.7569 124.226 20.0133V13.6474H126.293V22.7338H124.498L124.316 21.4279C122.376 22.2441 120.036 22.9514 117.733 22.9514C114.396 22.9514 112.437 21.7181 112.437 18.5987ZM135.988 21.2829C138.636 21.2829 140.867 20.8839 141.792 20.6844L142.227 22.2441C140.686 22.6431 138.147 22.9514 135.825 22.9514C130.856 22.9514 128.426 21.7 128.426 18.1815C128.426 14.7356 131.055 13.4298 135.535 13.4298C139.652 13.4298 142.554 14.4817 142.554 17.71C142.554 18.0183 142.518 18.5261 142.481 18.7256H130.457C130.711 20.7932 132.397 21.2829 135.988 21.2829ZM135.463 14.8989C132.234 14.8989 130.675 15.5518 130.457 17.5468H140.523C140.359 15.7513 139.18 14.8989 135.463 14.8989Z" fill="#10100F"/>
</g>
<defs>
<clipPath id="clip0_95_9777">
<rect width="103.377" height="30.2273" fill="white" transform="translate(39.5818 0.227295)"/>
</clipPath>
</defs>
</svg>
