<svg width="13" height="13" viewBox="0 0 13 13" fill="none" xmlns="http://www.w3.org/2000/svg">
<path d="M1.41698 10.6251C1.15256 10.8895 1.15256 11.3182 1.41698 11.5826C1.6814 11.847 2.1101 11.847 2.37452 11.5826L1.41698 10.6251ZM11.5829 2.37428C11.8473 2.10986 11.8473 1.68116 11.5829 1.41674C11.3184 1.15232 10.8897 1.15232 10.6253 1.41674L11.5829 2.37428ZM2.37452 11.5826L6.43702 7.52011L5.47948 6.56257L1.41698 10.6251L2.37452 11.5826ZM7.52036 6.43678L11.5829 2.37428L10.6253 1.41674L6.56282 5.47924L7.52036 6.43678Z" fill="#090A13"/>
<path d="M3.27297 1.21875L2.69572 1.21875C1.96633 1.21875 1.60163 1.21875 1.44915 1.41073C1.4016 1.4706 1.36818 1.54044 1.35139 1.61503C1.29754 1.8542 1.52632 2.13821 1.98389 2.70623L9.01992 11.4406C9.13955 11.5891 9.19937 11.6634 9.27817 11.7101C9.30418 11.7256 9.33151 11.7387 9.35984 11.7492C9.4457 11.7813 9.54105 11.7813 9.73175 11.7813H10.3053C11.0344 11.7813 11.399 11.7813 11.5515 11.5893C11.5991 11.5295 11.6325 11.4596 11.6493 11.3851C11.7032 11.1459 11.4745 10.8619 11.0172 10.294L3.98495 1.55958C3.86532 1.41099 3.8055 1.3367 3.72668 1.2899C3.70067 1.27446 3.67333 1.26138 3.64499 1.2508C3.55911 1.21875 3.46373 1.21875 3.27297 1.21875Z" fill="#090A13"/>
</svg>
