<svg width="7" height="14" viewBox="0 0 7 14" fill="none" xmlns="http://www.w3.org/2000/svg">
<path d="M1.93198 7.98383C1.88169 7.98383 0.826722 7.98415 0.34016 7.98367C0.0896717 7.98351 0.000303243 7.8935 0.000303243 7.64141C-1.70744e-05 6.99389 -0.000177233 6.34636 0.000303243 5.69884C0.000463402 5.44996 0.094957 5.35498 0.342242 5.35482C0.828804 5.3545 1.878 5.35466 1.93198 5.35466C1.93198 5.3103 1.93182 4.37545 1.93198 3.94494C1.9323 3.30847 2.04585 2.69923 2.36921 2.1414C2.70026 1.57043 3.18202 1.17932 3.79943 0.95318C4.19486 0.808236 4.60535 0.750419 5.02496 0.750099C5.54996 0.749779 6.07496 0.750259 6.60012 0.75122C6.82579 0.75154 6.92589 0.851319 6.92637 1.07858C6.92733 1.68767 6.92733 2.29675 6.92637 2.90567C6.92605 3.13534 6.83011 3.22759 6.59932 3.23016C6.16898 3.2348 5.73831 3.23192 5.30844 3.24922C4.87425 3.24922 4.64587 3.46127 4.64587 3.91067C4.63546 4.38602 4.64154 4.86185 4.64154 5.3545C4.68222 5.3545 5.91785 5.35434 6.49538 5.3545C6.75772 5.3545 6.84741 5.44467 6.84741 5.70845C6.84741 6.35245 6.84725 6.99661 6.84677 7.64061C6.84661 7.90054 6.76236 7.98351 6.49842 7.98367C5.92089 7.98399 4.69007 7.98383 4.63626 7.98383V13.1962C4.63626 13.4741 4.54881 13.5626 4.27462 13.5626C3.60612 13.5626 2.93745 13.5628 2.26895 13.5626C2.02663 13.5626 1.93214 13.4685 1.93214 13.2261C1.93198 11.5286 1.93198 8.04341 1.93198 7.98383Z" fill="#090A13"/>
</svg>
