<svg width="60" height="60" viewBox="0 0 60 60" fill="none" xmlns="http://www.w3.org/2000/svg">
<path d="M58.0363 19.3272C57.9272 19.0727 57.6909 18.8909 57.4091 18.8545C54.0272 18.3909 51.3454 19.2181 49.8636 21.1727C48.4454 23.0181 48.3091 25.6363 49.4363 28.5727L48.2 30.1181C47.8091 30.6091 47.5909 31.2272 47.5909 31.8636V40.0363L45.9091 37.9272C47.0909 34.8636 46.9454 32.1363 45.4727 30.2181C43.9272 28.1818 41.1454 27.3272 37.6272 27.8091C37.3454 27.8454 37.1091 28.0272 37 28.2818C35.6091 31.5363 35.7 34.4545 37.2545 36.4818C38.5272 38.1454 40.6181 39.0181 43.2636 39.0181C43.7182 39.0181 44.2 38.9818 44.6818 38.9272L47.6 42.5727V52.8C47.6 54.4091 46.2909 55.7091 44.6909 55.7091C43.0909 55.7091 41.7818 54.4 41.7818 52.8V49.8363C41.7818 47.2272 39.6636 45.1091 37.0545 45.1091C34.4454 45.1091 32.3272 47.2272 32.3272 49.8363V53.3727C32.3272 54.9818 31.0182 56.2818 29.4181 56.2818H22.6909C21.0818 56.2818 19.7818 54.9727 19.7818 53.3727V49.8H26.0909C27.3727 49.8 28.4181 48.7545 28.4181 47.4727V46.0181H29.1091C29.5454 46.0181 29.9091 45.6636 29.9091 45.2182C29.9091 44.7727 29.5545 44.4181 29.1091 44.4181H28.4181V42.2727H29.1091C29.5454 42.2727 29.9091 41.9181 29.9091 41.4727C29.9091 41.0272 29.5545 40.6727 29.1091 40.6727H28.4181V39.2181C28.4181 38.0181 27.5 37.0363 26.3272 36.9181C27.1181 34.9363 28.3636 33.1 29.9636 31.5636C33.3727 28.3 35.2545 23.9091 35.2545 19.1909C35.2545 14.5 33.4 10.1272 30.0272 6.88178C26.6545 3.62724 22.2091 1.93633 17.5182 2.09997C8.50906 2.45451 1.11815 10.0363 1.01815 19.0363C0.963604 23.9363 3.01815 28.6272 6.65451 31.9181C8.13633 33.2636 9.29088 34.9818 10.0272 36.9454C8.81815 37.0272 7.8636 38.0272 7.8636 39.2545V40.7091H7.18179C6.74542 40.7091 6.38179 41.0636 6.38179 41.5091C6.38179 41.9545 6.73633 42.3091 7.18179 42.3091H7.87269V44.4545H7.18179C6.74542 44.4545 6.38179 44.8091 6.38179 45.2545C6.38179 45.7 6.73633 46.0545 7.18179 46.0545H7.87269V47.5091C7.87269 48.7909 8.91815 49.8363 10.2 49.8363H18.1727V53.4091C18.1727 55.8909 20.1909 57.9091 22.6727 57.9091H29.4C31.8818 57.9091 33.9 55.8909 33.9 53.4091V49.8727C33.9 48.1454 35.3091 46.7363 37.0363 46.7363C38.7636 46.7363 40.1727 48.1454 40.1727 49.8727V52.8363C40.1727 55.3181 42.1909 57.3363 44.6727 57.3363C47.1545 57.3363 49.1727 55.3181 49.1727 52.8363V31.8636C49.1727 31.5909 49.2636 31.3272 49.4363 31.1181L50.6636 29.5818C51.1272 29.6272 51.5727 29.6636 52.0091 29.6636C54.5545 29.6636 56.5727 28.8181 57.7909 27.2181C59.2818 25.2636 59.3727 22.4636 58.0363 19.3272ZM38.5091 35.5181C37.3818 34.0454 37.3091 31.8545 38.2818 29.3272C40.9909 29.0454 43.0727 29.7 44.2 31.1818C45.1909 32.4727 45.3636 34.3181 44.7363 36.4636L41.1 31.9181C40.8272 31.5727 40.3272 31.5181 39.9818 31.7909C39.6363 32.0636 39.5818 32.5636 39.8545 32.9091L43.4636 37.4272C41.2272 37.4727 39.5 36.8181 38.5091 35.5181ZM7.72724 30.7363C4.42724 27.7545 2.5636 23.5 2.61815 19.0545C2.69997 10.8909 9.40906 4.00906 17.5636 3.71815C21.8181 3.55451 25.8454 5.10906 28.9 8.05451C31.9545 11.0091 33.6454 14.9727 33.6454 19.2272C33.6454 23.5091 31.9363 27.5 28.8454 30.4545C26.9181 32.2909 25.4636 34.5181 24.6091 36.9272H11.7182C10.9091 34.5091 9.53633 32.3727 7.72724 30.7363ZM9.45451 39.2454C9.45451 38.8454 9.78179 38.5091 10.1909 38.5091H26.0636C26.4636 38.5091 26.8 38.8363 26.8 39.2454V40.7H9.45451V39.2454ZM9.45451 42.2909H26.8V44.4363H9.45451V42.2909ZM9.45451 47.4909V46.0363H26.8V47.4909C26.8 47.8909 26.4727 48.2272 26.0636 48.2272H10.1909C9.78179 48.2181 9.45451 47.8909 9.45451 47.4909ZM56.5272 26.2545C55.6 27.4727 53.9727 28.1 51.8727 28.0727L55.2909 23.8C55.5636 23.4545 55.5091 22.9545 55.1636 22.6818C54.8181 22.4091 54.3181 22.4636 54.0454 22.8091L50.6 27.1181C50.0182 25.1 50.1909 23.3636 51.1272 22.1454C52.1909 20.7454 54.1727 20.1272 56.7454 20.3818C57.6727 22.7727 57.6 24.8545 56.5272 26.2545Z" fill="#163020"/>
<path d="M16.7635 23.2636L16.2908 25.9181C16.0999 26.9818 16.6453 27.9818 17.6544 28.3909C17.9453 28.509 18.2362 28.5636 18.5271 28.5636C19.2453 28.5636 19.9181 28.2181 20.3544 27.5727L25.5181 19.9909C25.9908 19.2999 26.0362 18.4181 25.6453 17.6818C25.2544 16.9454 24.4999 16.4909 23.6635 16.4909H19.5817L20.1999 12.9909C20.3181 12.3363 20.1362 11.6636 19.709 11.1545C19.2817 10.6454 18.6544 10.3545 17.9908 10.3545C17.2181 10.3545 16.5181 10.7363 16.0999 11.3909L10.6999 19.8181C10.2544 20.509 10.2271 21.3818 10.6181 22.109C11.009 22.8363 11.7635 23.2727 12.5817 23.2727H16.7635V23.2636ZM12.0181 21.3363C11.9635 21.2363 11.8544 20.9636 12.0362 20.6727L17.4362 12.2454C17.5544 12.0545 17.7635 11.9454 17.9817 11.9454C18.2453 11.9454 18.409 12.0909 18.4817 12.1818C18.5544 12.2727 18.6726 12.4545 18.6271 12.7181L17.8362 17.1545C17.7999 17.3818 17.8544 17.6272 18.009 17.7999C18.1635 17.9818 18.3817 18.0818 18.6181 18.0818H23.6453C23.9999 18.0818 24.1635 18.3272 24.2181 18.4272C24.2726 18.5272 24.3817 18.809 24.1817 19.0999L19.0181 26.6818C18.7453 27.0818 18.3453 26.9636 18.2362 26.9181C18.1181 26.8727 17.7544 26.6818 17.8362 26.1999L18.4726 22.609C18.5181 22.3818 18.4544 22.1363 18.2999 21.9636C18.1453 21.7818 17.9271 21.6818 17.6908 21.6818H12.5726C12.2453 21.6727 12.0726 21.4363 12.0181 21.3363Z" fill="#163020"/>
</svg>
